<?xml version="1.0" encoding="utf-8"?>
<!-- Generator: Adobe Illustrator 19.0.0, SVG Export Plug-In . SVG Version: 6.00 Build 0)  -->
<svg version="1.1" id="Layer_1" xmlns="http://www.w3.org/2000/svg" xmlns:xlink="http://www.w3.org/1999/xlink" x="0px" y="0px"
	 viewBox="-149 181 280 120" style="enable-background:new -149 181 280 120;" xml:space="preserve">
<style type="text/css">
	.st0{fill:#BDA882;}
	.st1{fill:#FFFFFF;}
</style>
<g id="XMLID_3_">
	<path id="XMLID_11_" class="st0" d="M-100.2,210.3c0,2.3-0.4,4.4-1,6.3c-0.7,2-1.6,3.6-2.8,5c-1.2,1.5-2.7,2.6-4.4,3.6
		c-1.7,0.9-3.6,1.5-5.5,1.7c1.2,0.2,2.5,0.5,3.6,1c1.2,0.5,2.2,1.1,3.2,2c0.9,0.9,1.7,2,2.2,3.3c0.6,1.4,0.9,3.1,0.9,5
		c0,1.6-0.4,3.1-1,4.5c-0.6,1.5-1.5,2.7-2.6,3.8c-1.1,1.1-2.5,2-4.1,2.6c-1.6,0.6-3.2,1-5,1c-1,0-2-0.1-2.9-0.5
		c-1-0.4-1.8-0.9-2.6-1.5c-0.7-0.6-1.3-1.5-1.7-2.3c-0.5-1-0.6-2-0.6-3.2c0-0.5,0-0.9,0.1-1c0.1-0.1,0.2-0.2,0.4-0.2
		c0.1,0,0.4,0.1,0.5,0.2c0.1,0.1,0.2,0.4,0.2,0.6c0.4,1.2,1.1,2.2,2.2,2.9c1,0.7,2.2,1.1,3.4,1.1c1.1,0,2.2-0.2,3.1-0.7
		c0.9-0.5,1.6-1.1,2.2-1.8c0.6-0.7,1.1-1.6,1.3-2.6s0.5-1.8,0.5-2.8c0-2-0.4-3.6-1.1-4.9c-0.7-1.2-1.7-2.3-2.8-3.1
		c-1.1-0.7-2.2-1.2-3.6-1.6c-1.2-0.4-2.3-0.5-3.3-0.6c-0.4,0-0.6-0.1-0.7-0.4c-0.1-0.1-0.2-0.4-0.2-0.6s0.1-0.5,0.2-0.7
		c0.1-0.2,0.4-0.4,0.6-0.4c2.3-0.2,4.4-0.6,6.1-1.2s3.2-1.6,4.3-2.7c1.1-1.2,2-2.6,2.6-4.3c0.6-1.7,0.9-3.7,0.9-5.9
		c0-1.7-0.4-3.3-1.1-4.8c-0.7-1.5-1.7-2.7-2.9-3.8c-1.2-1.1-2.7-1.8-4.4-2.5c-1.7-0.6-3.6-0.9-5.5-0.9c-1.8,0-3.6,0.2-5.5,0.6
		c-1.8,0.4-3.6,1-5,1.8c-1.5,0.9-2.8,2-3.8,3.3c-1,1.4-1.5,3.1-1.5,5.2c0,1.1,0.1,2.1,0.4,3.1s0.6,1.8,1,2.7
		c0.4,0.7,0.7,1.5,1.1,2.1c0.4,0.6,0.6,1,0.9,1.2c0.1,0.1,0.2,0.4,0.4,0.5c0.1,0.2,0.1,0.4,0.1,0.5c0,0.2-0.1,0.4-0.2,0.5
		s-0.5,0.2-0.9,0.2c-0.6,0-1.4-0.2-2.3-0.6c-1-0.4-1.8-1-2.8-1.8c-0.9-0.9-1.7-1.8-2.3-3.2c-0.6-1.2-1-2.8-1-4.5
		c0-1.2,0.2-2.5,0.7-3.8c0.5-1.4,1.2-2.7,2.1-3.9c1-1.4,2.1-2.6,3.4-3.7s2.9-2.2,4.7-3.1s3.7-1.6,5.8-2.1c2.1-0.5,4.4-0.7,6.9-0.7
		c3.4,0,6.4,0.5,8.8,1.5c2.5,1,4.4,2.3,6,3.8c1.6,1.6,2.7,3.3,3.4,5.3C-100.6,206.4-100.2,208.3-100.2,210.3z M-126.7,205.4
		c0.2-0.5,0.6-1,1-1.2c0.5-0.4,1-0.5,1.5-0.5c0.2,0,0.5,0,0.7,0.1c0.4,0.1,0.5,0.4,0.5,0.6s0,0.4,0,0.5c0,0.1-0.1,0.4-0.1,0.6
		c-0.5,2.1-0.9,4.2-1.1,6.3c-0.4,2.1-0.6,4.2-0.9,6.3c-0.2,2.1-0.5,4.1-0.6,5.9c-0.1,1.8-0.2,3.7-0.4,5.3c-0.1,1.6-0.1,3.1-0.1,4.3
		s0,2.2,0,2.9c0,2.5,0,4.3,0,5.8c0,1.5,0,2.5,0,3.2c0,0.1,0,0.2,0,0.4c0,0.1,0,0.4-0.1,0.5c0,0.1-0.1,0.2-0.2,0.4
		c-0.1,0.1-0.2,0.1-0.5,0.1c-0.4,0-0.6,0-0.9-0.1c-0.2-0.1-0.5-0.2-0.7-0.4c-0.2-0.1-0.5-0.2-0.7-0.4c-0.2-0.1-0.5-0.1-0.6-0.1
		c-0.2,0-0.5,0.1-0.6,0.2c-0.1,0.1-0.4,0.2-0.6,0.2c-0.2,0-0.5-0.1-0.7-0.2c-0.1-0.1-0.2-0.4-0.4-0.5c-0.1-0.2-0.1-0.5-0.1-0.7
		c0-0.2,0-0.5,0-0.6c0-0.9,0-2.2,0.1-4.1c0-1.7,0.1-3.9,0.2-6.3c0.1-1.4,0.1-2.9,0.2-4.5s0.2-3.2,0.4-4.8c0.1-1.6,0.2-3.2,0.5-4.7
		c0.1-1.5,0.2-2.9,0.5-4.2c0.1-1.2,0.2-2.3,0.4-3.2c0.1-0.9,0.2-1.5,0.2-1.8c0.1-1.1,0.4-2,0.5-2.7c0.1-0.7,0.4-1.2,0.6-1.5
		c0.1-0.2,0.4-0.4,0.6-0.6c0.2-0.1,0.5-0.2,0.7-0.4C-127.5,205.4-127.1,205.4-126.7,205.4z"/>
	<path id="XMLID_43_" class="st0" d="M-80.7,231.8c0.1,0,0.2,0,0.4,0.1c0.1,0.1,0.1,0.2,0.1,0.5c0,0.2,0,0.4-0.1,0.5
		c-0.4,1-0.7,2-1.2,2.8c-0.4,0.9-0.9,1.7-1.2,2.3c-0.5,0.7-0.9,1.6-1.2,2.2c-0.5,0.7-1.1,1.6-1.7,2.2c-0.6,0.6-1.2,1.4-2,1.8
		c-0.7,0.5-1.5,1-2.3,1.2c-0.9,0.4-1.7,0.5-2.7,0.5c-0.7,0-1.5-0.1-2.3-0.4c-0.9-0.2-1.6-0.7-2.3-1.4c-0.7-0.6-1.3-1.6-1.7-2.7
		c-0.5-1.1-0.7-2.6-0.7-4.4c0-0.9,0.1-1.6,0.2-2.5s0.4-1.6,0.6-2.5c0.2-0.7,0.6-1.5,1-2.2c0.4-0.7,0.7-1.2,1.1-1.7
		c0.6-0.9,1.3-1.7,2-2.5s1.3-1.5,2.1-2c0.7-0.6,1.3-1,2.1-1.4c0.7-0.4,1.3-0.5,1.8-0.5c0.9,0,1.7,0.4,2.5,1.1c0.7,0.7,1,1.7,1,3.1
		c0,1.1-0.2,2.3-0.9,3.6c-0.6,1.2-1.3,2.5-2.2,3.6c-0.9,1.1-1.8,2.2-2.8,3.2c-1,1-1.8,1.8-2.7,2.5c0.5,1.1,1,1.8,1.7,2.3
		s1.3,0.7,2.1,0.7c1.1,0,2.1-0.4,2.9-1.1c0.9-0.7,1.6-1.6,2.3-2.6c0.7-1,1.3-2.1,1.8-3.2c0.5-1.1,1-2.1,1.3-2.9
		c0.1-0.2,0.2-0.5,0.5-0.6C-81.1,231.8-81,231.8-80.7,231.8z M-94.8,233.5c0,1.5,0.1,2.7,0.4,3.8c0.5-0.5,1-1,1.5-1.6
		c0.5-0.6,1-1.2,1.3-2c0.4-0.6,0.7-1.4,1-2c0.2-0.7,0.4-1.4,0.4-2c0-1-0.2-1.7-0.6-2.2s-0.9-0.9-1.2-0.9c-0.2,0-0.5,0.1-0.9,0.5
		c-0.2,0.2-0.6,0.7-0.9,1.4c-0.2,0.6-0.5,1.2-0.7,2.1C-94.7,231.4-94.8,232.4-94.8,233.5z"/>
	<path id="XMLID_46_" class="st0" d="M-68.1,231.8c0.1,0,0.2,0,0.4,0.1c0.1,0.1,0.1,0.2,0.1,0.5c0,0.1,0,0.4-0.1,0.5
		c-0.5,1.4-1,2.7-1.3,3.8c-0.5,1.2-0.9,2.2-1.3,3.2c-0.4,1-0.9,1.7-1.2,2.5c-0.4,0.7-0.7,1.2-1.1,1.7c-0.4,0.5-0.7,0.9-1.1,1.1
		c-0.4,0.2-0.7,0.5-1.1,0.6c-0.4,0.1-0.7,0.1-1.2,0.1s-1.1-0.1-1.7-0.4c-0.6-0.2-1.2-0.6-1.7-1.4c-0.5-0.7-1-1.6-1.3-2.7
		c-0.4-1.2-0.5-2.7-0.5-4.5c0-0.5,0-1.4,0.1-2.6c0-1.2,0.1-2.7,0.2-4.4c0.1-1.7,0.2-3.7,0.4-5.8c0.1-2.2,0.4-4.4,0.5-6.9
		c0.1-1.5,0.2-3.1,0.5-4.8c0.1-1.7,0.4-3.4,0.6-5.2c0.2-1.7,0.4-3.2,0.6-4.7c0.2-1.4,0.4-2.5,0.5-3.3s0.5-1.5,1-2
		c0.5-0.5,1-1,1.6-1.6c0.2-0.2,0.5-0.5,0.7-0.7c0.2-0.2,0.5-0.5,0.7-0.7c0.2-0.2,0.5-0.4,0.7-0.6s0.5-0.2,0.6-0.2
		c0.4,0,0.5,0.1,0.5,0.5c0,0.2,0,0.7-0.1,1.5c-0.1,0.7-0.2,1.8-0.5,3.3c-0.2,1.6-0.5,3.7-0.7,6.3c-0.2,2.6-0.6,6-1,10.1
		c-0.1,0.9-0.1,1.8-0.2,2.9c-0.1,1.1-0.2,2.3-0.2,3.6c-0.1,1.2-0.2,2.6-0.2,3.9c-0.1,1.4-0.1,2.6-0.2,3.7c-0.1,1.1-0.1,2.2-0.1,3.2
		s-0.1,1.7-0.1,2.3c0,1.7,0.1,2.9,0.5,3.9s1,1.5,1.7,1.5c0.5,0,0.9-0.2,1.2-0.6s0.7-1,1.1-1.7c0.4-0.7,0.7-1.6,1.1-2.5
		c0.4-1,0.7-2,1.2-3.1c0.1-0.2,0.2-0.5,0.5-0.6C-68.4,231.8-68.2,231.8-68.1,231.8z"/>
	<path id="XMLID_48_" class="st0" d="M-55.3,231.8c0.1,0,0.2,0,0.4,0.1c0.1,0.1,0.1,0.2,0.1,0.5c0,0.1,0,0.4-0.1,0.5
		c-0.5,1.4-1,2.7-1.3,3.8c-0.5,1.2-0.9,2.2-1.3,3.2c-0.4,1-0.9,1.7-1.2,2.5c-0.4,0.7-0.7,1.2-1.1,1.7c-0.4,0.5-0.7,0.9-1.1,1.1
		c-0.4,0.2-0.7,0.5-1.1,0.6c-0.4,0.1-0.7,0.1-1.2,0.1c-0.5,0-1.1-0.1-1.7-0.4c-0.6-0.2-1.2-0.6-1.7-1.4c-0.5-0.7-1-1.6-1.3-2.7
		c-0.4-1.2-0.5-2.7-0.5-4.5c0-0.5,0-1.4,0.1-2.6c0-1.2,0.1-2.7,0.2-4.4c0.1-1.7,0.2-3.7,0.4-5.8c0.1-2.2,0.4-4.4,0.5-6.9
		c0.1-1.5,0.2-3.1,0.5-4.8c0.1-1.7,0.4-3.4,0.6-5.2c0.2-1.7,0.4-3.2,0.6-4.7c0.2-1.4,0.4-2.5,0.5-3.3s0.5-1.5,1-2
		c0.5-0.5,1-1,1.6-1.6c0.2-0.2,0.5-0.5,0.7-0.7c0.2-0.2,0.5-0.5,0.7-0.7c0.2-0.2,0.5-0.4,0.7-0.6c0.2-0.2,0.5-0.2,0.6-0.2
		c0.4,0,0.5,0.1,0.5,0.5c0,0.2,0,0.7-0.1,1.5c-0.1,0.7-0.2,1.8-0.5,3.3c-0.2,1.6-0.5,3.7-0.7,6.3c-0.2,2.6-0.6,6-1,10.1
		c-0.1,0.9-0.1,1.8-0.2,2.9s-0.2,2.3-0.2,3.6c-0.1,1.2-0.2,2.6-0.2,3.9c-0.1,1.4-0.1,2.6-0.2,3.7s-0.1,2.2-0.1,3.2s-0.1,1.7-0.1,2.3
		c0,1.7,0.1,2.9,0.5,3.9s1,1.5,1.7,1.5c0.5,0,0.9-0.2,1.2-0.6s0.7-1,1.1-1.7c0.4-0.7,0.7-1.6,1.1-2.5c0.4-1,0.7-2,1.2-3.1
		c0.1-0.2,0.2-0.5,0.5-0.6C-55.7,231.8-55.5,231.8-55.3,231.8z"/>
	<path id="XMLID_50_" class="st0" d="M-35.9,232.9c-0.7,2.2-1.4,4.1-2.1,5.8c-0.6,1.6-1.2,2.9-1.8,4.1c-0.6,1.1-1.3,2-2,2.5
		s-1.5,0.9-2.3,0.9c-0.6,0-1.1-0.2-1.5-0.6c-0.4-0.4-0.7-0.9-1-1.4c-0.2-0.5-0.5-1-0.6-1.4c-0.1-0.5-0.2-0.7-0.2-0.9
		c0,0,0-0.1-0.1-0.2c0-0.1,0-0.1-0.1-0.1c0,0-0.1,0-0.1,0.1c0,0.1-0.1,0.1-0.1,0.2c-0.1,0.1-0.2,0.5-0.6,1c-0.4,0.5-0.7,1-1.2,1.5
		c-0.5,0.5-1,0.9-1.6,1.2c-0.6,0.4-1.2,0.6-2,0.6c-0.6,0-1.1-0.1-1.6-0.5c-0.5-0.4-1-0.9-1.3-1.5c-0.4-0.6-0.7-1.4-1-2.2
		c-0.2-0.9-0.4-1.7-0.4-2.7c0-2.1,0.4-4.1,1-5.9s1.7-3.7,3.2-5.5c0.7-0.9,1.5-1.7,2.3-2.3c0.9-0.7,1.6-1.2,2.3-1.7
		c0.7-0.5,1.5-0.9,2.2-1.1s1.3-0.4,1.8-0.4c0.4,0,0.7,0,1,0.1c0.2,0.1,0.6,0.4,0.9,0.6c0.2,0.2,0.5,0.6,0.6,1.1
		c0.1,0.5,0.2,1.1,0.2,1.7c0,0.7-0.1,1.5-0.4,2.3c-0.2,0.9-0.6,1.6-1,2.3c-0.5,0.7-1,1.4-1.6,1.8c-0.6,0.5-1.3,0.7-2.2,0.7
		c-0.5,0-0.7-0.2-0.7-0.6c0-0.2,0.1-0.7,0.2-1.4c0.1-0.6,0.2-1.2,0.2-1.7c0-0.2,0-0.5,0-0.7s-0.1-0.6-0.1-0.9
		c-0.1-0.2-0.2-0.5-0.4-0.7c-0.1-0.2-0.4-0.2-0.7-0.2c-0.6,0-1.2,0.2-1.7,0.9c-0.5,0.6-0.9,1.4-1.2,2.2c-0.4,0.9-0.6,1.7-0.7,2.7
		c-0.1,1-0.2,1.7-0.2,2.5c0,0.9,0.1,1.7,0.2,2.3c0.1,0.6,0.4,1.1,0.6,1.5c0.2,0.4,0.5,0.6,0.9,0.7c0.4,0.1,0.6,0.2,1,0.2
		c0.9,0,1.5-0.2,2.1-0.9c0.6-0.5,1.2-1.1,1.6-1.8c0.5-0.6,0.9-1.2,1.1-1.8c0.2-0.5,0.5-0.9,0.7-0.9c0.2,0,0.4,0.2,0.5,0.7
		c0.1,1.1,0.2,2,0.5,2.7c0.1,0.7,0.4,1.2,0.5,1.6c0.1,0.4,0.4,0.7,0.5,0.9c0.1,0.1,0.4,0.2,0.6,0.2c0.4,0,0.7-0.2,1.1-0.6
		c0.4-0.4,0.7-1,1.1-1.7c0.4-0.7,0.7-1.6,1.1-2.6c0.4-1,0.9-2,1.2-3.1c0.2-0.6,0.6-0.9,1-0.9c0.4,0,0.5,0.2,0.5,0.6
		C-35.8,232.5-35.8,232.8-35.9,232.9z"/>
	<path id="XMLID_52_" class="st0" d="M20.4,196.1c0,0.2-0.1,0.5-0.4,0.6c-0.2,0.1-0.4,0.4-0.5,0.5s-0.4,0.4-0.5,0.5
		s-0.2,0.5-0.2,0.7c-0.1,0.6-0.4,1-0.9,1.4c-0.5,0.4-1.1,0.5-1.7,0.5c-0.6,0-1.6,0-2.9-0.1s-2.9-0.1-4.7-0.1c-2,0-3.9,0.1-6,0.2
		c-2.1,0.1-4,0.4-6,0.7c-2,0.4-3.8,0.7-5.4,1.2c-1.6,0.5-3.2,1.1-4.4,1.8c-1.2,0.7-2.3,1.6-3.1,2.6c-0.7,1-1.1,2.1-1.1,3.3
		c0,1.7,0.2,3.3,0.9,4.7s1.2,2.5,2,3.4c0.7,1,1.4,1.7,2,2.2c0.6,0.6,0.9,1,0.9,1.1c0,0.2-0.1,0.4-0.5,0.6s-0.7,0.2-1.4,0.2
		c-1.4,0-2.6-0.2-3.7-0.9c-1.1-0.6-2-1.4-2.8-2.3c-0.7-1-1.4-2.1-1.8-3.3c-0.4-1.2-0.6-2.6-0.6-3.9c0-2.1,0.5-4.1,1.5-5.9
		c1-1.8,2.3-3.6,4-5s3.8-2.7,6-3.8c2.3-1.1,4.8-1.8,7.5-2.3c3.2-0.6,6.1-1,8.7-1.2c2.7-0.1,5-0.2,7.1-0.2c2,0,3.4,0.1,4.5,0.2
		s2,0.2,2.5,0.5c0.5,0.2,0.9,0.4,1,0.6c0.1,0.2,0.2,0.5,0.2,0.6c0,0.1,0,0.2-0.1,0.5C20.5,195.7,20.4,195.8,20.4,196.1z M-0.9,203.7
		c0,0.1,0,0.5,0,1.1c0,0.6,0,1.5-0.1,2.5c0,1-0.1,2.2-0.1,3.6c0,1.4-0.1,2.8-0.2,4.3c-0.1,1.6-0.1,3.2-0.2,4.8
		c-0.1,1.7-0.1,3.3-0.2,5c1.4,0,2.7,0.1,3.8,0.2c1.2,0.1,2.2,0.2,3.2,0.4c0.7,0.1,1.5,0.2,2,0.4c0.5,0.1,0.9,0.2,1.2,0.4
		c0.2,0.1,0.5,0.2,0.7,0.4c0.2,0.1,0.2,0.2,0.4,0.5c0.1,0.1,0.2,0.2,0.4,0.4c0.1,0.1,0.4,0.2,0.5,0.4c0.1,0.1,0.4,0.2,0.5,0.4
		c0.1,0.1,0.1,0.2,0.1,0.5s-0.1,0.4-0.2,0.5c-0.1,0.1-0.2,0.2-0.5,0.4c-0.2,0.1-0.7,0.1-1.5,0.1c-0.7,0-2,0.1-3.7,0.1
		c-0.9,0-2,0.1-3.2,0.1s-2.6,0-3.9,0.1c-0.1,1.5-0.1,2.8-0.2,4.2c-0.1,1.4-0.1,2.6-0.2,3.6c0,1.1-0.1,2-0.1,2.7s-0.1,1.4-0.1,1.6
		c-0.1,1-0.2,2.1-0.6,3.4s-0.9,2.7-1.7,4.1c-0.9,1.4-1.7,2.8-2.9,4.2c-1.2,1.4-2.8,2.6-4.7,3.7c-0.4,0.1-0.6,0.2-0.7,0.2
		c-0.4,0-0.5-0.1-0.5-0.5c0-0.2,0.1-0.5,0.4-0.7c0.9-0.9,1.6-1.7,2.1-2.6c0.6-0.9,1-1.8,1.4-2.9c0.4-1.1,0.6-2.3,0.7-3.8
		c0.1-1.5,0.4-3.2,0.5-5.2c0-0.6,0-1.4,0.1-2.5c0-0.9,0.1-2.1,0.1-3.7c0.1-1.5,0.1-3.4,0.2-5.8c-1.7,0-2.9,0.1-3.7,0.2
		c-0.7,0.1-1.2,0.2-1.5,0.2c-0.1,0-0.2,0.1-0.2,0.2c0,0.1,0,0.2,0,0.4s-0.1,0.2-0.1,0.2c-0.1,0.1-0.2,0.1-0.5,0.1
		c-0.1,0-0.4,0-0.6-0.1c-0.2-0.1-0.5-0.1-0.7-0.4c-0.2-0.2-0.5-0.2-0.6-0.5c-0.1-0.1-0.2-0.4-0.2-0.6c0-0.4,0.2-0.9,0.7-1.5
		c0.1-0.1,0.4-0.4,0.6-0.6c0.4-0.2,0.7-0.6,1.4-1c0.6-0.4,1.4-0.6,2.3-1c0.9-0.4,2.1-0.6,3.3-0.9l1-17.4c0-0.4,0-0.7,0.1-1.1
		c0-0.4,0.1-0.9,0.4-1.2c0.2-0.4,0.4-0.7,0.7-1.1c0.4-0.4,0.7-0.5,1.3-0.6c0.5-0.1,0.9-0.2,1.1-0.5c0.4-0.2,0.6-0.5,1-0.7
		c0.4-0.2,0.5-0.5,0.7-0.6c0.2-0.2,0.5-0.2,0.6-0.2s0.1,0,0.2,0.1c0.1,0.1,0.1,0.2,0.1,0.5c0,0.2,0,0.4,0,0.6
		C-0.9,203.3-0.9,203.4-0.9,203.7z"/>
	<path id="XMLID_55_" class="st0" d="M28.4,231.8c0.1,0,0.2,0,0.4,0.1c0.1,0.1,0.1,0.2,0.1,0.5c0,0.1,0,0.4-0.1,0.5
		c-0.6,1.6-1.1,3.1-1.6,4.3c-0.5,1.4-1,2.5-1.5,3.4c-0.7,1.5-1.4,2.7-2,3.6c-0.6,0.9-1.4,1.4-2.2,1.6c-0.2,0-0.4,0.1-0.6,0.1
		c-0.2,0-0.5,0.1-0.7,0.1c-0.6,0-1.2-0.1-2-0.4c-0.7-0.2-1.4-0.7-2-1.4c-0.6-0.7-1.1-1.6-1.5-2.8c-0.4-1.2-0.6-2.8-0.6-4.8
		c0-1.7,0-3.4,0.1-5c0.1-1.6,0.2-3.2,0.5-4.9c0.4-0.7,0.9-1.5,1.4-2.1s1.1-1.1,1.6-1.6c0.5-0.5,1-0.7,1.5-1c0.5-0.2,0.7-0.4,1-0.4
		c0.1,0,0.1,0.1,0.1,0.4s0,0.5-0.1,1c0,0.5-0.1,1.1-0.2,2c-0.1,0.9-0.1,2-0.2,3.2c-0.1,1.4-0.1,2.9-0.2,4.8c0,1.1,0.1,2.1,0.2,3.1
		c0.1,0.9,0.4,1.7,0.6,2.3c0.2,0.7,0.6,1.2,1,1.6c0.4,0.4,0.7,0.6,1.2,0.6c0.4,0,0.7-0.2,1.1-0.6c0.4-0.4,0.7-1,1.1-1.7
		c0.4-0.7,0.7-1.6,1.1-2.6c0.4-1,0.7-2.1,1.2-3.2C27.5,232,27.9,231.8,28.4,231.8z M23.5,207.6c0.1,0.1,0.1,0.2,0.1,0.5
		c0,0.5-0.2,1-0.9,1.5c-0.5,0.5-1,0.9-1.4,1.2c-0.4,0.4-0.7,0.7-1.1,1.1c-0.4,0.4-0.6,0.6-0.9,0.7c-0.2,0.2-0.5,0.2-0.6,0.2
		s-0.2,0-0.4-0.1c-0.1,0-0.2-0.1-0.4-0.4c-0.2-0.6-0.6-1.1-0.9-1.7s-0.5-1.2-0.7-1.7c-0.2-0.5-0.4-1-0.6-1.4
		c-0.1-0.4-0.2-0.6-0.2-0.9c0-0.2,0.1-0.6,0.4-0.9c0.1-0.1,0.4-0.4,0.6-0.9c0.4-0.4,0.7-0.9,1.1-1.4c0.4-0.5,0.7-0.9,1.1-1.2
		c0.4-0.4,0.6-0.6,0.7-0.7c0.2-0.4,0.5-0.5,0.7-0.5s0.4,0.1,0.5,0.5c0.1,0.1,0.2,0.5,0.5,1.1c0.2,0.6,0.5,1.1,0.9,1.8
		c0.2,0.6,0.6,1.2,0.9,1.8C23.2,207.1,23.5,207.5,23.5,207.6z"/>
	<path id="XMLID_58_" class="st0" d="M45.1,232.9c-0.6,1.8-1.1,3.7-1.7,5.3s-1.2,2.9-1.8,4.2c-0.6,1.2-1.4,2.1-2.2,2.7
		c-0.9,0.6-1.7,1-2.7,1c-1.2,0-2.2-0.6-2.9-1.8c-0.7-1.2-1.1-2.8-1.1-4.8c0-0.9,0-1.7,0.1-2.5c0.1-0.7,0.1-1.5,0.2-2.2
		c0.1-0.7,0.2-1.5,0.2-2.1c0.1-0.7,0.1-1.4,0.1-2c0-0.7-0.1-1.1-0.2-1.4c-0.1-0.2-0.4-0.4-0.6-0.4h-0.1c0,0-0.1,0-0.2,0
		c-0.1,0-0.4,0-0.6,0.1c-0.2,0-0.6,0.1-1,0.1c-0.2,0.6-0.5,1.1-0.6,1.5c-0.1,0.4-0.4,0.7-0.5,1c-0.1,0.2-0.2,0.5-0.4,0.7
		c-0.1,0.2-0.1,0.4-0.2,0.6c-0.2,0.5-0.4,0.7-0.5,0.9c-0.1,0.1-0.4,0.1-0.5,0.1c-0.1,0-0.2,0-0.4-0.1c-0.1-0.1-0.1-0.2-0.1-0.5
		c0-0.1,0-0.4,0.1-0.5c0.1-0.2,0.1-0.5,0.2-0.7c0.1-0.4,0.2-0.7,0.4-1.2c0.1-0.5,0.2-1.1,0.4-1.8c-0.5-0.2-0.9-0.7-1.2-1.6
		c-0.4-0.9-0.5-1.7-0.5-2.8c0-0.9,0.1-1.8,0.5-2.7c0.2-0.9,0.7-1.7,1.1-2.6c0.4-0.9,1-1.4,1.5-1.8c0.5-0.5,1-0.7,1.4-0.7
		c0.5,0,1,0.4,1.4,1c0.4,0.6,0.6,1.4,0.6,2.2c0,0.5,0,0.9-0.1,1.4c-0.1,0.5-0.2,0.9-0.4,1.2c-0.1,0.4-0.2,0.7-0.4,1
		c-0.1,0.2-0.1,0.5-0.1,0.7c0,0.2,0.1,0.4,0.2,0.4s0.4,0,0.6-0.1l1.7-0.9c0.6-0.2,1.2-0.4,1.7-0.4c0.7,0,1.2,0.2,1.6,0.7
		c0.4,0.5,0.4,1.2,0.4,2.1c0,0.4,0,1.1-0.1,2.2c-0.1,1-0.2,2.2-0.4,3.4c-0.1,1.2-0.2,2.5-0.2,3.7c-0.1,1.2-0.1,2.2-0.1,3.1
		s0.1,1.5,0.2,1.8c0.1,0.4,0.6,0.6,1.2,0.6c0.5,0,0.9-0.2,1.2-0.7c0.4-0.5,0.9-1.1,1.2-2c0.4-0.7,0.7-1.6,1.1-2.6
		c0.4-0.9,0.6-1.8,1-2.7c0.2-0.6,0.5-0.9,1-0.9c0.4,0,0.6,0.2,0.6,0.6c0,0.1,0,0.1,0,0.2C45.1,232.6,45.1,232.8,45.1,232.9z"/>
	<path id="XMLID_60_" class="st0" d="M61.7,231.8c0.1,0,0.2,0,0.4,0.1c0.1,0.1,0.1,0.2,0.1,0.5c0,0.2,0,0.4-0.1,0.5
		c-0.4,1-0.7,2-1.2,2.8c-0.4,0.9-0.9,1.7-1.2,2.3c-0.5,0.7-0.9,1.6-1.2,2.2c-0.5,0.7-1.1,1.6-1.7,2.2s-1.2,1.4-2,1.8
		c-0.7,0.5-1.5,1-2.3,1.2c-0.9,0.4-1.7,0.5-2.7,0.5c-0.7,0-1.5-0.1-2.3-0.4c-0.9-0.2-1.6-0.7-2.3-1.4c-0.7-0.6-1.3-1.6-1.7-2.7
		c-0.5-1.1-0.7-2.6-0.7-4.4c0-0.9,0.1-1.6,0.2-2.5c0.1-0.9,0.4-1.6,0.6-2.5c0.2-0.7,0.6-1.5,1-2.2c0.4-0.7,0.7-1.2,1.1-1.7
		c0.6-0.9,1.3-1.7,2-2.5s1.3-1.5,2.1-2c0.7-0.6,1.3-1,2.1-1.4c0.7-0.4,1.3-0.5,1.8-0.5c0.9,0,1.7,0.4,2.5,1.1c0.7,0.7,1,1.7,1,3.1
		c0,1.1-0.2,2.3-0.9,3.6c-0.6,1.2-1.3,2.5-2.2,3.6s-1.8,2.2-2.8,3.2c-1,1-1.8,1.8-2.7,2.5c0.5,1.1,1,1.8,1.7,2.3
		c0.7,0.5,1.3,0.7,2.1,0.7c1.1,0,2.1-0.4,2.9-1.1c0.9-0.7,1.6-1.6,2.3-2.6c0.7-1,1.3-2.1,1.8-3.2c0.5-1.1,1-2.1,1.3-2.9
		c0.1-0.2,0.2-0.5,0.5-0.6C61.3,231.8,61.4,231.8,61.7,231.8z M47.5,233.5c0,1.5,0.1,2.7,0.4,3.8c0.5-0.5,1-1,1.5-1.6s1-1.2,1.3-2
		c0.4-0.7,0.7-1.4,1-2c0.2-0.6,0.4-1.4,0.4-2c0-1-0.2-1.7-0.6-2.2c-0.4-0.5-0.9-0.9-1.2-0.9c-0.2,0-0.5,0.1-0.9,0.5
		c-0.2,0.2-0.6,0.7-0.9,1.4c-0.2,0.6-0.5,1.2-0.7,2.1C47.7,231.4,47.5,232.4,47.5,233.5z"/>
	<path id="XMLID_63_" class="st0" d="M87.6,231.8c0.1,0,0.2,0,0.4,0.1c0.1,0.1,0.1,0.2,0.1,0.5c0,0.2,0,0.4-0.1,0.5
		c-0.7,2.2-1.5,4.1-2.1,5.6c-0.6,1.6-1.2,2.9-2,4.1c-0.7,1.1-1.3,2-2,2.5c-0.7,0.6-1.5,0.9-2.2,0.9c-1,0-1.8-0.2-2.5-0.7
		c-0.6-0.5-1.1-1.1-1.5-1.8c-0.4-0.7-0.6-1.6-0.7-2.6c-0.1-1-0.1-1.8-0.1-2.8c0-0.6,0-1.4,0-2c0-0.6,0-1.2,0.1-1.8
		c0-0.6,0.1-1.1,0.1-1.6c0-0.5,0-0.9,0-1.1c0-0.5-0.1-0.7-0.2-1s-0.4-0.4-0.5-0.4c-0.2,0-0.4,0.1-0.5,0.4c-0.1,0.2-0.2,0.5-0.4,0.7
		c-0.1,0.2-0.2,0.9-0.5,1.6c-0.2,0.7-0.5,1.6-0.9,2.6c-0.4,1-0.6,2-1,2.9c-0.4,1-0.6,2-1,2.8c-0.4,1.1-0.7,2-1.1,2.6
		c-0.4,0.6-0.7,1.2-1,1.6c-0.2,0.4-0.6,0.6-1,0.7c-0.2,0.1-0.6,0.2-0.9,0.2c-0.2,0-0.5,0-0.7-0.1c-0.2-0.1-0.5-0.2-0.7-0.5
		c-0.2-0.2-0.4-0.5-0.5-0.9c-0.1-0.4-0.2-0.9-0.2-1.5c0-1.2-0.1-2.6-0.1-4.1c0-1.5,0-2.8,0-4.2c0-0.6,0-1.2,0-1.8s0-1.1,0-1.7
		c0-0.7,0-1.2-0.1-1.5s-0.1-0.5-0.2-0.5c-0.2,0-0.5,0.2-0.6,0.7c-0.1,0.5-0.5,1.4-1,2.5c-0.1,0.4-0.2,0.6-0.5,0.7
		c-0.1,0.1-0.4,0.2-0.5,0.2c-0.1,0-0.2,0-0.4-0.1c-0.1-0.1-0.1-0.2-0.1-0.6c0-0.1,0-0.4,0.1-0.7c0.1-0.4,0.2-0.7,0.5-1.2
		c0.1-0.5,0.4-0.9,0.5-1.4c0.1-0.5,0.4-0.9,0.5-1.2c0.2-0.6,0.5-1.1,0.7-1.7c0.2-0.6,0.6-1.1,1-1.6c0.4-0.5,0.7-0.9,1.2-1.2
		c0.5-0.4,1-0.5,1.5-0.5c0.7,0,1.3,0.4,1.8,1.1c0.5,0.7,0.9,2,0.9,3.6c0,1.2,0,2.5,0,3.6s0,2.1,0,2.9s0,1.5,0,2c0,0.5,0,0.7,0,0.7
		s0.1-0.2,0.4-0.6c0.1-0.5,0.4-1,0.6-1.7c0.2-0.7,0.6-1.5,0.9-2.5c0.2-1,0.7-1.8,1.1-2.7c0.4-1,0.7-1.8,1.2-2.7
		c0.4-0.9,0.9-1.6,1.2-2.2c0.5-0.7,0.9-1.2,1.3-1.6c0.5-0.4,1.1-0.5,1.7-0.5c0.9,0,1.5,0.5,1.8,1.6c0.4,1,0.6,2.5,0.6,4.2
		c0,0.5,0,1,0,1.6s0,1.4-0.1,2c0,0.7-0.1,1.4-0.1,2.1c0,0.7,0,1.4,0,2c0,1,0,1.8,0.1,2.5c0.1,0.6,0.2,1.1,0.4,1.5
		c0.1,0.4,0.2,0.6,0.5,0.7c0.1,0.1,0.4,0.1,0.5,0.1c0.5,0,1-0.2,1.3-0.6c0.4-0.5,0.7-1,1.1-1.7c0.4-0.7,0.7-1.6,1.1-2.6
		s0.7-2,1.2-3.1C86.8,232,87.2,231.8,87.6,231.8z"/>
	<path id="XMLID_65_" class="st0" d="M109.6,232.8c-0.6,1.8-1.2,3.4-1.8,4.8c-0.6,1.2-1.1,2.3-1.7,3.3c-0.6,1-1.1,1.7-1.7,2.5
		c-0.6,0.7-1.2,1.5-1.8,2.1c-0.5,0.6-1,1.1-1.6,1.6c-0.5,0.5-1.1,1-1.6,1.5c0.2,0.9,0.5,1.8,0.6,2.8c0.1,1,0.2,1.8,0.2,2.7
		c0,2.3-0.4,4.3-1,6c-0.6,1.7-1.2,3.3-2.1,4.5c-0.7,1.2-1.6,2.2-2.5,3.1c-0.9,0.7-1.5,1.4-2.1,1.6c-0.6,0.4-1.1,0.6-1.6,0.7
		c-0.5,0.1-1,0.2-1.3,0.2c-1.2,0-2.1-0.5-2.7-1.6c-0.6-1.1-0.9-2.6-0.9-4.3c0-1.6,0.2-3.1,0.7-4.5c0.5-1.5,1.1-2.7,2-3.9
		c0.9-1.2,1.7-2.3,2.7-3.4c1-1.1,2.1-2.1,3.2-2.9c-0.2-1.8-0.9-3.4-1.7-4.9c-0.2-0.5-0.5-0.7-0.5-0.9c0-0.4,0.1-0.6,0.5-0.7
		c0.4-0.1,0.7-0.4,1.2-0.6c0.5-0.2,1-0.5,1.5-0.9c0.5-0.4,1.1-0.9,1.5-1.6c0.4-0.5,0.6-1,0.9-1.6c0.2-0.6,0.4-1.1,0.5-1.6
		c0.1-0.5,0.1-1.1,0.2-1.6c0-0.5,0-1,0-1.5c0-1.4-0.1-2.6-0.4-3.7c-0.2-1-0.5-1.8-0.9-2.6c-0.4-0.6-0.7-1.1-1.2-1.5
		c-0.5-0.4-1-0.5-1.5-0.5c-0.5,0-1,0.1-1.3,0.5c-0.4,0.4-0.7,0.7-1,1.4c-0.2,0.6-0.5,1.2-0.6,2c-0.1,0.7-0.1,1.5-0.1,2.3
		c0,0.6,0,1.2,0.1,1.7c0.1,0.6,0.1,1.1,0.4,1.6c0.1,0.5,0.4,0.9,0.5,1.1c0.2,0.2,0.5,0.5,0.7,0.5c0.7,0.1,1.1,0.4,1.1,0.7
		c0,0.1-0.1,0.4-0.2,0.6s-0.4,0.4-0.6,0.6c-0.2,0.1-0.6,0.4-1,0.5c-0.4,0.1-0.9,0.1-1.2,0.1s-1-0.1-1.5-0.2c-0.5-0.1-1.1-0.5-1.5-1
		c-0.5-0.5-0.9-1-1.2-1.7c-0.4-0.7-0.5-1.6-0.5-2.7c0-1.4,0.2-2.7,0.7-4.1c0.5-1.4,1.2-2.5,2.1-3.4c0.9-1,2-1.8,3.1-2.3
		c1.2-0.6,2.5-0.9,3.8-0.9c0.7,0,1.5,0.1,2.3,0.4c0.9,0.2,1.6,0.6,2.3,1.4c0.7,0.7,1.3,1.6,1.8,2.8c0.5,1.2,0.7,2.8,0.7,4.8
		c0,1.4-0.2,2.9-0.9,4.5c-0.6,1.6-1.6,3.2-2.9,4.7c-0.2,0.2-0.5,0.5-0.9,0.7c-0.4,0.2-0.7,0.5-1.1,0.9c-0.4,0.2-0.7,0.5-1.1,0.7
		c-0.4,0.2-0.6,0.4-1,0.5c0.5,0.4,1,0.9,1.3,1.4c0.4,0.5,0.7,1,1,1.6c0.6-0.4,1.1-0.9,1.6-1.2c0.5-0.4,1-0.7,1.3-1.1
		c0.9-0.9,1.7-1.7,2.5-2.7c0.7-0.9,1.3-1.8,1.8-2.8c0.5-1,1-2,1.3-2.9c0.4-1,0.7-2,1.1-3.1c0.2-0.6,0.6-1,1.1-1c0.1,0,0.2,0,0.4,0.1
		c0.1,0.1,0.1,0.2,0.1,0.4C109.6,232.4,109.6,232.5,109.6,232.8z M91.4,267.3c0.4,0,0.7-0.5,1.1-1.2c0.5-0.9,0.9-2,1.2-3.4
		c0.4-1.4,0.7-2.9,1-4.8c0.2-1.7,0.4-3.6,0.4-5.4c-0.6,0.7-1.2,1.5-1.8,2.3c-0.6,0.9-1,1.7-1.5,2.7c-0.4,1-0.7,2.1-1,3.3
		c-0.2,1.2-0.4,2.6-0.4,4.1c0,0.9,0.1,1.5,0.2,1.8C90.9,267.1,91.1,267.3,91.4,267.3z"/>
	<path id="XMLID_68_" class="st0" d="M126.2,231.8c0.1,0,0.2,0,0.4,0.1c0.1,0.1,0.1,0.2,0.1,0.5c0,0.2,0,0.4-0.1,0.5
		c-0.4,1-0.7,2-1.2,2.8c-0.4,0.9-0.9,1.7-1.2,2.3c-0.5,0.7-0.9,1.6-1.2,2.2c-0.5,0.7-1.1,1.6-1.7,2.2c-0.6,0.6-1.2,1.4-2,1.8
		c-0.7,0.5-1.5,1-2.3,1.2c-0.9,0.4-1.7,0.5-2.7,0.5c-0.7,0-1.5-0.1-2.3-0.4c-0.9-0.2-1.6-0.7-2.3-1.4c-0.7-0.6-1.3-1.6-1.7-2.7
		c-0.5-1.1-0.7-2.6-0.7-4.4c0-0.9,0.1-1.6,0.2-2.5s0.4-1.6,0.6-2.5c0.2-0.7,0.6-1.5,1-2.2c0.4-0.7,0.7-1.2,1.1-1.7
		c0.6-0.9,1.3-1.7,2-2.5c0.6-0.7,1.3-1.5,2.1-2c0.7-0.6,1.3-1,2.1-1.4c0.7-0.4,1.3-0.5,1.8-0.5c0.9,0,1.7,0.4,2.5,1.1
		c0.7,0.7,1,1.7,1,3.1c0,1.1-0.2,2.3-0.9,3.6c-0.6,1.2-1.3,2.5-2.2,3.6c-0.9,1.1-1.8,2.2-2.8,3.2c-1,1-1.8,1.8-2.7,2.5
		c0.5,1.1,1,1.8,1.7,2.3c0.7,0.5,1.3,0.7,2.1,0.7c1.1,0,2.1-0.4,2.9-1.1c0.9-0.7,1.6-1.6,2.3-2.6c0.7-1,1.3-2.1,1.8-3.2
		c0.5-1.1,1-2.1,1.3-2.9c0.1-0.2,0.2-0.5,0.5-0.6C125.8,231.8,126,231.8,126.2,231.8z M112.1,233.5c0,1.5,0.1,2.7,0.4,3.8
		c0.5-0.5,1-1,1.5-1.6c0.5-0.6,1-1.2,1.3-2c0.4-0.7,0.7-1.4,1-2c0.2-0.6,0.4-1.4,0.4-2c0-1-0.2-1.7-0.6-2.2
		c-0.4-0.5-0.9-0.9-1.2-0.9c-0.2,0-0.5,0.1-0.9,0.5c-0.2,0.2-0.6,0.7-0.9,1.4c-0.2,0.6-0.5,1.2-0.7,2.1
		C112.2,231.4,112.1,232.4,112.1,233.5z"/>
</g>
<g id="XMLID_5_">
	<path id="XMLID_14_" class="st1" d="M-81.4,294v-15.7h6.5c0.7,0,1.3,0.1,1.8,0.5c0.6,0.2,1.1,0.6,1.5,1.1c0.4,0.5,0.7,1,1,1.6
		c0.2,0.6,0.4,1.2,0.4,1.8c0,0.6-0.1,1.2-0.4,1.8c-0.2,0.6-0.5,1.1-0.9,1.6c-0.4,0.5-0.9,0.9-1.5,1.1c-0.6,0.2-1.2,0.4-1.8,0.4H-80
		v5.8L-81.4,294L-81.4,294z M-79.8,286.9h5c0.5,0,0.9-0.1,1.2-0.2c0.4-0.2,0.7-0.5,1-0.7c0.2-0.4,0.5-0.7,0.6-1.1
		c0.1-0.5,0.2-0.9,0.2-1.4s-0.1-1-0.2-1.4c-0.1-0.5-0.4-0.9-0.7-1.1c-0.2-0.4-0.6-0.6-1-0.7c-0.4-0.2-0.9-0.2-1.2-0.2h-4.9V286.9
		L-79.8,286.9z"/>
	<path id="XMLID_17_" class="st1" d="M-67.7,294v-15.7h1.5V294H-67.7L-67.7,294z"/>
	<path id="XMLID_19_" class="st1" d="M-63.5,292.8l10.7-13.1h-10.6v-1.4h12.3v1.2l-10.6,13.1h10.6v1.4h-12.5v-1.2H-63.5z"/>
	<path id="XMLID_21_" class="st1" d="M-49.8,292.8l10.7-13.1h-10.6v-1.4h12.3v1.2l-10.6,13.1h10.6v1.4h-12.5
		C-49.8,294-49.8,292.8-49.8,292.8z"/>
	<path id="XMLID_23_" class="st1" d="M-36.2,294l6.6-15.7h1.2l6.6,15.7h-1.7l-2.1-4.9h-7.1l-2,4.9H-36.2z M-29,280.1l-3.2,7.7h6.4
		L-29,280.1z"/>
	<path id="XMLID_26_" class="st1" d="M-3.9,294l-1.8-2c-0.6,0.6-1.4,1.2-2.2,1.6c-0.9,0.4-1.7,0.6-2.6,0.6c-0.7,0-1.4-0.1-2-0.4
		c-0.6-0.2-1.1-0.5-1.6-0.9c-0.5-0.4-0.9-0.9-1.1-1.4c-0.2-0.5-0.4-1.1-0.4-1.7c0-0.5,0.1-1,0.2-1.5c0.1-0.5,0.4-0.9,0.7-1.2
		s0.6-0.7,1.1-1.1c0.4-0.4,0.9-0.6,1.2-1c-0.4-0.4-0.7-0.9-1-1.1c-0.2-0.4-0.5-0.6-0.6-1c-0.1-0.2-0.2-0.6-0.4-0.9
		c-0.1-0.2-0.1-0.5-0.1-0.9c0-0.5,0.1-1,0.2-1.4c0.2-0.4,0.5-0.7,0.9-1.1c0.4-0.4,0.7-0.6,1.2-0.7s1-0.2,1.6-0.2
		c0.5,0,1,0.1,1.5,0.2s0.9,0.4,1.1,0.6c0.4,0.2,0.6,0.6,0.7,1c0.2,0.4,0.2,0.9,0.2,1.2c0,0.5-0.1,0.9-0.2,1.2
		c-0.2,0.4-0.5,0.7-0.7,1.1c-0.4,0.4-0.6,0.6-1.1,1c-0.4,0.2-0.9,0.6-1.4,0.9l4.4,4.7c0.2-0.6,0.5-1.2,0.7-1.8
		c0.1-0.6,0.2-1.4,0.2-2.1h1.2c0,0.9-0.1,1.7-0.4,2.6c-0.2,0.9-0.6,1.6-1,2.2l2.9,3.1L-3.9,294L-3.9,294z M-10.3,293
		c0.7,0,1.5-0.1,2.1-0.5s1.2-0.7,1.7-1.4l-4.8-5c-0.7,0.5-1.5,1.1-2,1.7c-0.5,0.6-0.7,1.4-0.7,2.1c0,0.5,0.1,0.9,0.4,1.4
		c0.2,0.5,0.5,0.7,0.9,1c0.4,0.2,0.7,0.5,1.2,0.6C-11.2,292.9-10.8,293-10.3,293z M-12.8,281.5c0,0.1,0,0.4,0.1,0.5
		c0,0.1,0.1,0.4,0.2,0.6c0.1,0.2,0.4,0.5,0.6,0.7c0.2,0.2,0.6,0.6,1,1.1c0.4-0.2,0.9-0.6,1.2-0.9s0.6-0.5,1-0.7
		c0.2-0.2,0.5-0.5,0.6-0.9c0.1-0.2,0.2-0.6,0.2-0.9c0-0.6-0.2-1.1-0.6-1.5c-0.4-0.4-1-0.6-1.6-0.6c-0.4,0-0.7,0-1,0.1
		c-0.4,0.1-0.6,0.2-0.9,0.5c-0.2,0.2-0.4,0.5-0.5,0.7C-12.8,280.9-12.8,281.2-12.8,281.5z"/>
	<path id="XMLID_30_" class="st1" d="M17.4,291.7c-1.5,1.6-3.2,2.3-5,2.3c-1.1,0-2.1-0.2-2.9-0.7c-0.9-0.5-1.7-1.1-2.3-1.8
		c-0.6-0.7-1.2-1.6-1.6-2.6c-0.4-1-0.6-2-0.6-2.9c0-1.1,0.1-2.1,0.5-3.1c0.4-1,0.9-1.8,1.5-2.6c0.6-0.7,1.3-1.4,2.3-1.7
		c0.9-0.5,1.8-0.6,2.9-0.6c0.7,0,1.5,0.1,2.1,0.2c0.6,0.1,1.2,0.4,1.7,0.7c0.5,0.4,1,0.6,1.4,1.1c0.4,0.4,0.7,0.9,1,1.4l-1.2,0.7
		c-0.5-1-1.2-1.7-2-2.2c-0.9-0.5-1.7-0.7-2.8-0.7c-0.9,0-1.7,0.2-2.3,0.6c-0.7,0.4-1.4,0.9-1.8,1.5c-0.5,0.6-0.9,1.4-1.1,2.1
		s-0.4,1.6-0.4,2.5c0,0.9,0.1,1.7,0.5,2.6c0.2,0.7,0.7,1.5,1.2,2.1c0.5,0.6,1.1,1.1,1.8,1.5c0.7,0.4,1.5,0.5,2.3,0.5
		c0.9,0,1.7-0.2,2.6-0.6c0.9-0.4,1.6-1.1,2.3-2v-2.6h-3.4V286h4.8v7.7h-1.4V291.7L17.4,291.7z"/>
	<path id="XMLID_32_" class="st1" d="M22,294v-15.7h6.6c0.7,0,1.4,0.1,1.8,0.5c0.6,0.2,1.1,0.6,1.5,1.1c0.4,0.5,0.7,1,1,1.6
		c0.2,0.6,0.4,1.2,0.4,1.8c0,0.6-0.1,1.1-0.2,1.6s-0.4,1-0.7,1.5c-0.4,0.4-0.7,0.7-1.1,1.1c-0.4,0.2-0.9,0.5-1.5,0.6l3.9,6H32
		l-3.7-5.8h-4.7v5.8C23.5,294,22,294,22,294z M23.5,286.9h5.2c0.5,0,0.9-0.1,1.2-0.2c0.4-0.2,0.7-0.5,1-0.9c0.2-0.4,0.5-0.7,0.6-1.1
		c0.1-0.4,0.2-0.9,0.2-1.4c0-0.5-0.1-1-0.2-1.4c-0.1-0.5-0.4-0.9-0.7-1.1c-0.2-0.4-0.6-0.6-1-0.7c-0.4-0.2-0.9-0.2-1.2-0.2h-5V286.9
		L23.5,286.9z"/>
	<path id="XMLID_35_" class="st1" d="M36.6,294v-15.7h1.5V294H36.6L36.6,294z"/>
	<path id="XMLID_37_" class="st1" d="M42.1,294v-15.7h1.5v14.4h9.1v1.4L42.1,294L42.1,294z"/>
	<path id="XMLID_39_" class="st1" d="M55.1,294v-15.7h1.5v14.4h9.1v1.4L55.1,294L55.1,294z"/>
</g>
<g id="XMLID_6_">
	<rect id="XMLID_13_" x="81.8" y="285.5" class="st1" width="44.3" height="2.2"/>
</g>
<g id="XMLID_8_">
	<rect id="XMLID_12_" x="-143.3" y="285.5" class="st1" width="44.3" height="2.2"/>
</g>
</svg>
