<?xml version="1.0" encoding="utf-8"?>
<!-- Generator: Adobe Illustrator 19.0.0, SVG Export Plug-In . SVG Version: 6.00 Build 0)  -->
<svg version="1.1" id="Layer_1" xmlns="http://www.w3.org/2000/svg" xmlns:xlink="http://www.w3.org/1999/xlink" x="0px" y="0px"
	 viewBox="-149 181 280 120" style="enable-background:new -149 181 280 120;" xml:space="preserve">
<style type="text/css">
	.st0{fill:#BDA882;}
	.st1{fill:#FFFFFF;}
</style>
<g id="XMLID_10_">
	<g id="XMLID_3_">
		<path id="XMLID_11_" class="st0" d="M-84.5,216.1c0,1.9-0.3,3.6-0.8,5.1c-0.6,1.6-1.3,2.9-2.3,4.1c-1,1.2-2.2,2.1-3.6,2.9
			s-2.9,1.2-4.5,1.4c1,0.2,2,0.4,2.9,0.8c1,0.4,1.8,0.9,2.6,1.6c0.7,0.7,1.4,1.6,1.8,2.7c0.5,1.1,0.7,2.5,0.7,4.1
			c0,1.3-0.3,2.5-0.8,3.7s-1.2,2.2-2.1,3.1c-0.9,0.9-2,1.6-3.3,2.1s-2.6,0.8-4.1,0.8c-0.8,0-1.6-0.1-2.4-0.4
			c-0.8-0.3-1.5-0.7-2.1-1.2s-1.1-1.2-1.4-1.9c-0.4-0.8-0.5-1.6-0.5-2.6c0-0.4,0-0.7,0.1-0.8s0.2-0.2,0.3-0.2c0.1,0,0.3,0.1,0.4,0.2
			c0.1,0.1,0.2,0.3,0.2,0.5c0.3,1,0.9,1.8,1.8,2.4c0.8,0.6,1.8,0.9,2.8,0.9c0.9,0,1.8-0.2,2.5-0.6c0.7-0.4,1.3-0.9,1.8-1.5
			s0.9-1.3,1.1-2.1s0.4-1.5,0.4-2.3c0-1.6-0.3-2.9-0.9-4c-0.6-1-1.4-1.9-2.3-2.5s-1.8-1-2.9-1.3c-1-0.3-1.9-0.4-2.7-0.5
			c-0.3,0-0.5-0.1-0.6-0.3c-0.1-0.1-0.2-0.3-0.2-0.5s0.1-0.4,0.2-0.6c0.1-0.2,0.3-0.3,0.5-0.3c1.9-0.2,3.6-0.5,5-1s2.6-1.3,3.5-2.2
			c0.9-1,1.6-2.1,2.1-3.5s0.7-3,0.7-4.8c0-1.4-0.3-2.7-0.9-3.9s-1.4-2.2-2.4-3.1c-1-0.9-2.2-1.5-3.6-2s-2.9-0.7-4.5-0.7
			c-1.5,0-2.9,0.2-4.5,0.5c-1.5,0.3-2.9,0.8-4.1,1.5s-2.3,1.6-3.1,2.7c-0.8,1.1-1.2,2.5-1.2,4.2c0,0.9,0.1,1.7,0.3,2.5
			c0.2,0.8,0.5,1.5,0.8,2.2s0.6,1.2,0.9,1.7s0.5,0.8,0.7,1c0.1,0.1,0.2,0.3,0.3,0.4c0.1,0.2,0.1,0.3,0.1,0.4c0,0.2-0.1,0.3-0.2,0.4
			s-0.4,0.2-0.7,0.2c-0.5,0-1.1-0.2-1.9-0.5s-1.5-0.8-2.3-1.5c-0.7-0.7-1.4-1.5-1.9-2.6c-0.5-1-0.8-2.3-0.8-3.7c0-1,0.2-2,0.6-3.1
			s1-2.2,1.7-3.2c0.8-1.1,1.7-2.1,2.8-3c1.1-0.9,2.4-1.8,3.8-2.5s3-1.3,4.7-1.7s3.6-0.6,5.6-0.6c2.8,0,5.2,0.4,7.2,1.2
			s3.6,1.9,4.9,3.1c1.3,1.3,2.2,2.7,2.8,4.3C-84.8,212.9-84.5,214.5-84.5,216.1z M-106.1,212.1c0.2-0.4,0.5-0.8,0.8-1
			c0.4-0.3,0.8-0.4,1.2-0.4c0.2,0,0.4,0,0.6,0.1c0.3,0.1,0.4,0.3,0.4,0.5s0,0.3,0,0.4c0,0.1-0.1,0.3-0.1,0.5
			c-0.4,1.7-0.7,3.4-0.9,5.1c-0.3,1.7-0.5,3.4-0.7,5.1c-0.2,1.7-0.4,3.3-0.5,4.8s-0.2,3-0.3,4.3c-0.1,1.3-0.1,2.5-0.1,3.5
			s0,1.8,0,2.4c0,2,0,3.5,0,4.7s0,2,0,2.6c0,0.1,0,0.2,0,0.3s0,0.3-0.1,0.4c0,0.1-0.1,0.2-0.2,0.3s-0.2,0.1-0.4,0.1
			c-0.3,0-0.5,0-0.7-0.1s-0.4-0.2-0.6-0.3s-0.4-0.2-0.6-0.3s-0.4-0.1-0.5-0.1c-0.2,0-0.4,0.1-0.5,0.2c-0.1,0.1-0.3,0.2-0.5,0.2
			s-0.4-0.1-0.6-0.2c-0.1-0.1-0.2-0.3-0.3-0.4c-0.1-0.2-0.1-0.4-0.1-0.6c0-0.2,0-0.4,0-0.5c0-0.7,0-1.8,0.1-3.3
			c0-1.4,0.1-3.2,0.2-5.1c0.1-1.1,0.1-2.4,0.2-3.7s0.2-2.6,0.3-3.9c0.1-1.3,0.2-2.6,0.4-3.8c0.1-1.2,0.2-2.4,0.4-3.4
			c0.1-1,0.2-1.9,0.3-2.6c0.1-0.7,0.2-1.2,0.2-1.5c0.1-0.9,0.3-1.6,0.4-2.2c0.1-0.6,0.3-1,0.5-1.2c0.1-0.2,0.3-0.3,0.5-0.5
			c0.2-0.1,0.4-0.2,0.6-0.3C-106.7,212.2-106.4,212.1-106.1,212.1z"/>
		<path id="XMLID_43_" class="st0" d="M-68.6,233.6c0.1,0,0.2,0,0.3,0.1c0.1,0.1,0.1,0.2,0.1,0.4s0,0.3-0.1,0.4
			c-0.3,0.8-0.6,1.6-1,2.3c-0.3,0.7-0.7,1.4-1,1.9c-0.4,0.6-0.7,1.3-1,1.8c-0.4,0.6-0.9,1.3-1.4,1.8s-1,1.1-1.6,1.5s-1.2,0.8-1.9,1
			c-0.7,0.3-1.4,0.4-2.2,0.4c-0.6,0-1.2-0.1-1.9-0.3c-0.7-0.2-1.3-0.6-1.9-1.1s-1.1-1.3-1.4-2.2c-0.4-0.9-0.6-2.1-0.6-3.6
			c0-0.7,0.1-1.3,0.2-2s0.3-1.3,0.5-2c0.2-0.6,0.5-1.2,0.8-1.8s0.6-1,0.9-1.4c0.5-0.7,1.1-1.4,1.6-2c0.6-0.6,1.1-1.2,1.7-1.6
			c0.6-0.5,1.1-0.8,1.7-1.1s1.1-0.4,1.5-0.4c0.7,0,1.4,0.3,2,0.9c0.6,0.6,0.8,1.4,0.8,2.5c0,0.9-0.2,1.9-0.7,2.9s-1.1,2-1.8,2.9
			c-0.7,0.9-1.5,1.8-2.3,2.6s-1.5,1.5-2.2,2c0.4,0.9,0.8,1.5,1.4,1.9s1.1,0.6,1.7,0.6c0.9,0,1.7-0.3,2.4-0.9
			c0.7-0.6,1.3-1.3,1.9-2.1s1.1-1.7,1.5-2.6c0.4-0.9,0.8-1.7,1.1-2.4c0.1-0.2,0.2-0.4,0.4-0.5C-68.9,233.6-68.8,233.6-68.6,233.6z
			 M-80.1,235c0,1.2,0.1,2.2,0.3,3.1c0.4-0.4,0.8-0.8,1.2-1.3c0.4-0.5,0.8-1,1.1-1.6c0.3-0.5,0.6-1.1,0.8-1.6
			c0.2-0.6,0.3-1.1,0.3-1.6c0-0.8-0.2-1.4-0.5-1.8c-0.3-0.4-0.7-0.6-1-0.6c-0.2,0-0.4,0.1-0.7,0.4c-0.2,0.2-0.5,0.6-0.7,1.1
			s-0.4,1-0.6,1.7C-80,233.3-80.1,234.1-80.1,235z"/>
		<path id="XMLID_46_" class="st0" d="M-58.3,233.6c0.1,0,0.2,0,0.3,0.1s0.1,0.2,0.1,0.4c0,0.1,0,0.3-0.1,0.4
			c-0.4,1.1-0.8,2.2-1.1,3.1c-0.4,1-0.7,1.8-1.1,2.6c-0.3,0.8-0.7,1.4-1,2s-0.6,1-0.9,1.4s-0.6,0.7-0.9,0.9
			c-0.3,0.2-0.6,0.4-0.9,0.5c-0.3,0.1-0.6,0.1-1,0.1s-0.9-0.1-1.4-0.3s-1-0.5-1.4-1.1c-0.4-0.5-0.8-1.3-1.1-2.2
			c-0.3-1-0.4-2.2-0.4-3.7c0-0.4,0-1.1,0.1-2.1c0-1,0.1-2.2,0.2-3.6c0.1-1.4,0.2-3,0.3-4.7c0.1-1.8,0.3-3.6,0.4-5.6
			c0.1-1.2,0.2-2.5,0.4-3.9c0.1-1.4,0.3-2.8,0.5-4.2s0.3-2.6,0.5-3.8c0.2-1.1,0.3-2,0.4-2.7s0.4-1.2,0.8-1.6
			c0.4-0.4,0.8-0.8,1.3-1.3c0.2-0.2,0.4-0.4,0.6-0.6c0.2-0.2,0.4-0.4,0.6-0.6c0.2-0.2,0.4-0.3,0.6-0.5c0.2-0.1,0.4-0.2,0.5-0.2
			c0.3,0,0.4,0.1,0.4,0.4c0,0.2,0,0.6-0.1,1.2c-0.1,0.6-0.2,1.5-0.4,2.7c-0.2,1.3-0.4,3-0.6,5.1c-0.2,2.1-0.5,4.9-0.8,8.2
			c-0.1,0.7-0.1,1.5-0.2,2.4c-0.1,0.9-0.2,1.9-0.2,2.9c-0.1,1-0.2,2.1-0.2,3.2c-0.1,1.1-0.1,2.1-0.2,3c-0.1,1-0.1,1.8-0.1,2.6
			s-0.1,1.4-0.1,1.9c0,1.4,0.1,2.4,0.4,3.2c0.3,0.8,0.8,1.2,1.4,1.2c0.4,0,0.7-0.2,1-0.5s0.6-0.8,0.9-1.4s0.6-1.3,0.9-2
			c0.3-0.8,0.6-1.6,1-2.5c0.1-0.2,0.2-0.4,0.4-0.5C-58.6,233.6-58.4,233.6-58.3,233.6z"/>
		<path id="XMLID_48_" class="st0" d="M-47.9,233.6c0.1,0,0.2,0,0.3,0.1s0.1,0.2,0.1,0.4c0,0.1,0,0.3-0.1,0.4
			c-0.4,1.1-0.8,2.2-1.1,3.1c-0.4,1-0.7,1.8-1.1,2.6c-0.3,0.8-0.7,1.4-1,2s-0.6,1-0.9,1.4c-0.3,0.4-0.6,0.7-0.9,0.9
			c-0.3,0.2-0.6,0.4-0.9,0.5c-0.3,0.1-0.6,0.1-1,0.1s-0.9-0.1-1.4-0.3s-1-0.5-1.4-1.1c-0.4-0.5-0.8-1.3-1.1-2.2
			c-0.3-1-0.4-2.2-0.4-3.7c0-0.4,0-1.1,0.1-2.1c0-1,0.1-2.2,0.2-3.6c0.1-1.4,0.2-3,0.3-4.7c0.1-1.8,0.3-3.6,0.4-5.6
			c0.1-1.2,0.2-2.5,0.4-3.9c0.1-1.4,0.3-2.8,0.5-4.2s0.3-2.6,0.5-3.8c0.2-1.1,0.3-2,0.4-2.7c0.1-0.7,0.4-1.2,0.8-1.6
			c0.4-0.4,0.8-0.8,1.3-1.3c0.2-0.2,0.4-0.4,0.6-0.6c0.2-0.2,0.4-0.4,0.6-0.6c0.2-0.2,0.4-0.3,0.6-0.5c0.2-0.1,0.4-0.2,0.5-0.2
			c0.3,0,0.4,0.1,0.4,0.4c0,0.2,0,0.6-0.1,1.2c-0.1,0.6-0.2,1.5-0.4,2.7c-0.2,1.3-0.4,3-0.6,5.1c-0.2,2.1-0.5,4.9-0.8,8.2
			c-0.1,0.7-0.1,1.5-0.2,2.4c-0.1,0.9-0.2,1.9-0.2,2.9c-0.1,1-0.2,2.1-0.2,3.2c-0.1,1.1-0.1,2.1-0.2,3c-0.1,1-0.1,1.8-0.1,2.6
			s-0.1,1.4-0.1,1.9c0,1.4,0.1,2.4,0.4,3.2c0.3,0.8,0.8,1.2,1.4,1.2c0.4,0,0.7-0.2,1-0.5s0.6-0.8,0.9-1.4s0.6-1.3,0.9-2
			c0.3-0.8,0.6-1.6,1-2.5c0.1-0.2,0.2-0.4,0.4-0.5C-48.2,233.6-48.1,233.6-47.9,233.6z"/>
		<path id="XMLID_50_" class="st0" d="M-32.1,234.5c-0.6,1.8-1.1,3.3-1.7,4.7c-0.5,1.3-1,2.4-1.5,3.3c-0.5,0.9-1.1,1.6-1.6,2
			s-1.2,0.7-1.9,0.7c-0.5,0-0.9-0.2-1.2-0.5s-0.6-0.7-0.8-1.1c-0.2-0.4-0.4-0.8-0.5-1.1c-0.1-0.4-0.2-0.6-0.2-0.7c0,0,0-0.1-0.1-0.2
			c0-0.1,0-0.1-0.1-0.1c0,0-0.1,0-0.1,0.1s-0.1,0.1-0.1,0.2c-0.1,0.1-0.2,0.4-0.5,0.8c-0.3,0.4-0.6,0.8-1,1.2s-0.8,0.7-1.3,1
			s-1,0.5-1.6,0.5c-0.5,0-0.9-0.1-1.3-0.4c-0.4-0.3-0.8-0.7-1.1-1.2s-0.6-1.1-0.8-1.8s-0.3-1.4-0.3-2.2c0-1.7,0.3-3.3,0.8-4.8
			s1.4-3,2.6-4.5c0.6-0.7,1.2-1.4,1.9-1.9c0.7-0.6,1.3-1,1.9-1.4c0.6-0.4,1.2-0.7,1.8-0.9s1.1-0.3,1.5-0.3c0.3,0,0.6,0,0.8,0.1
			s0.5,0.3,0.7,0.5s0.4,0.5,0.5,0.9s0.2,0.9,0.2,1.4c0,0.6-0.1,1.2-0.3,1.9s-0.5,1.3-0.8,1.9c-0.4,0.6-0.8,1.1-1.3,1.5
			s-1.1,0.6-1.8,0.6c-0.4,0-0.6-0.2-0.6-0.5c0-0.2,0.1-0.6,0.2-1.1c0.1-0.5,0.2-1,0.2-1.4c0-0.2,0-0.4,0-0.6c0-0.2-0.1-0.5-0.1-0.7
			c-0.1-0.2-0.2-0.4-0.3-0.6c-0.1-0.2-0.3-0.2-0.6-0.2c-0.5,0-1,0.2-1.4,0.7s-0.7,1.1-1,1.8s-0.5,1.4-0.6,2.2s-0.2,1.4-0.2,2
			c0,0.7,0.1,1.4,0.2,1.9c0.1,0.5,0.3,0.9,0.5,1.2s0.4,0.5,0.7,0.6s0.5,0.2,0.8,0.2c0.6,0,1.2-0.2,1.7-0.7c0.5-0.4,1-0.9,1.3-1.5
			c0.4-0.5,0.7-1,0.9-1.5c0.2-0.4,0.4-0.7,0.6-0.7c0.2,0,0.3,0.2,0.4,0.6c0.1,0.9,0.2,1.6,0.4,2.2c0.1,0.6,0.3,1,0.4,1.3
			c0.1,0.3,0.3,0.6,0.4,0.7c0.1,0.1,0.3,0.2,0.5,0.2c0.3,0,0.6-0.2,0.9-0.5c0.3-0.3,0.6-0.8,0.9-1.4s0.6-1.3,0.9-2.1s0.6-1.6,1-2.5
			c0.2-0.5,0.5-0.7,0.8-0.7s0.4,0.2,0.4,0.5C-32,234.3-32,234.4-32.1,234.5z"/>
		<path id="XMLID_52_" class="st0" d="M13.8,204.5c0,0.2-0.1,0.4-0.3,0.5s-0.3,0.3-0.4,0.4s-0.3,0.3-0.4,0.4
			c-0.1,0.1-0.2,0.3-0.2,0.5c-0.1,0.5-0.3,0.8-0.7,1.1s-0.9,0.4-1.4,0.4s-1.3,0-2.4-0.1s-2.4-0.1-3.8-0.1c-1.6,0-3.2,0.1-4.9,0.2
			s-3.3,0.3-4.9,0.6s-3.1,0.6-4.4,1c-1.4,0.4-2.6,0.9-3.6,1.5s-1.9,1.3-2.5,2.1s-0.9,1.7-0.9,2.7c0,1.4,0.2,2.7,0.7,3.8
			c0.5,1.1,1,2,1.6,2.8s1.1,1.4,1.6,1.8c0.5,0.5,0.7,0.8,0.7,0.9c0,0.2-0.1,0.3-0.4,0.5c-0.3,0.1-0.6,0.2-1.1,0.2
			c-1.1,0-2.1-0.2-3-0.7s-1.6-1.1-2.3-1.9s-1.1-1.7-1.5-2.7c-0.3-1-0.5-2.1-0.5-3.2c0-1.7,0.4-3.3,1.2-4.8c0.8-1.5,1.9-2.9,3.3-4.1
			c1.4-1.2,3.1-2.2,4.9-3.1c1.9-0.9,3.9-1.5,6.1-1.9c2.6-0.5,5-0.8,7.1-1c2.2-0.1,4.1-0.2,5.8-0.2c1.6,0,2.8,0.1,3.7,0.2
			c0.9,0.1,1.6,0.2,2,0.4s0.7,0.3,0.8,0.5s0.2,0.4,0.2,0.5s0,0.2-0.1,0.4S13.8,204.4,13.8,204.5z M-3.6,210.7c0,0.1,0,0.4,0,0.9
			s0,1.2-0.1,2c0,0.8-0.1,1.8-0.1,2.9s-0.1,2.3-0.2,3.5c-0.1,1.3-0.1,2.6-0.2,3.9s-0.1,2.7-0.2,4.1c1.1,0,2.2,0.1,3.1,0.2
			c1,0.1,1.8,0.2,2.6,0.3c0.6,0.1,1.2,0.2,1.6,0.3s0.7,0.2,1,0.3c0.2,0.1,0.4,0.2,0.6,0.3s0.2,0.2,0.3,0.4c0.1,0.1,0.2,0.2,0.3,0.3
			c0.1,0.1,0.3,0.2,0.4,0.3s0.3,0.2,0.4,0.3s0.1,0.2,0.1,0.4s-0.1,0.3-0.2,0.4c-0.1,0.1-0.2,0.2-0.4,0.3c-0.2,0.1-0.6,0.1-1.2,0.1
			s-1.6,0.1-3,0.1c-0.7,0-1.6,0.1-2.6,0.1s-2.1,0-3.2,0.1c-0.1,1.2-0.1,2.3-0.2,3.4c-0.1,1.1-0.1,2.1-0.2,2.9c0,0.9-0.1,1.6-0.1,2.2
			c0,0.6-0.1,1.1-0.1,1.3c-0.1,0.8-0.2,1.7-0.5,2.8s-0.7,2.2-1.4,3.3c-0.6,1.2-1.4,2.3-2.4,3.4s-2.3,2.1-3.8,3
			c-0.3,0.1-0.5,0.2-0.6,0.2c-0.3,0-0.4-0.1-0.4-0.4c0-0.2,0.1-0.4,0.3-0.6c0.7-0.7,1.3-1.4,1.7-2.1c0.5-0.7,0.8-1.5,1.1-2.4
			s0.5-1.9,0.6-3.1c0.1-1.2,0.3-2.6,0.4-4.2c0-0.5,0-1.1,0.1-2c0-0.7,0.1-1.7,0.1-3c0.1-1.2,0.1-2.8,0.2-4.7c-1.4,0-2.4,0.1-3,0.2
			s-1,0.2-1.2,0.2c-0.1,0-0.2,0.1-0.2,0.2c0,0.1,0,0.2,0,0.3s-0.1,0.2-0.1,0.2c-0.1,0.1-0.2,0.1-0.4,0.1c-0.1,0-0.3,0-0.5-0.1
			s-0.4-0.1-0.6-0.3s-0.4-0.2-0.5-0.4c-0.1-0.2-0.2-0.3-0.2-0.5c0-0.3,0.2-0.7,0.6-1.2c0.1-0.1,0.3-0.3,0.5-0.5
			c0.3-0.2,0.6-0.5,1.1-0.8s1.1-0.5,1.9-0.8c0.7-0.3,1.7-0.5,2.7-0.7l0.8-14.2c0-0.3,0-0.6,0.1-0.9c0-0.3,0.1-0.7,0.3-1
			c0.1-0.3,0.3-0.6,0.6-0.9c0.3-0.3,0.6-0.4,1.1-0.5c0.4-0.1,0.7-0.2,0.9-0.4c0.3-0.2,0.5-0.4,0.8-0.6c0.2-0.2,0.4-0.4,0.6-0.5
			c0.2-0.2,0.4-0.2,0.5-0.2s0.1,0,0.2,0.1s0.1,0.2,0.1,0.4s0,0.3,0,0.5C-3.6,210.4-3.6,210.6-3.6,210.7z"/>
		<path id="XMLID_55_" class="st0" d="M20.3,233.6c0.1,0,0.2,0,0.3,0.1c0.1,0.1,0.1,0.2,0.1,0.4c0,0.1,0,0.3-0.1,0.4
			c-0.5,1.3-0.9,2.5-1.3,3.5c-0.4,1.1-0.8,2-1.2,2.8c-0.6,1.2-1.1,2.2-1.6,2.9s-1.1,1.1-1.8,1.3c-0.2,0-0.3,0.1-0.5,0.1
			s-0.4,0.1-0.6,0.1c-0.5,0-1-0.1-1.6-0.3s-1.1-0.6-1.6-1.1c-0.5-0.6-0.9-1.3-1.2-2.3s-0.5-2.3-0.5-3.9c0-1.4,0-2.8,0.1-4.1
			s0.2-2.6,0.4-4c0.3-0.6,0.7-1.2,1.1-1.7s0.9-0.9,1.3-1.3c0.4-0.4,0.8-0.6,1.2-0.8s0.6-0.3,0.8-0.3c0.1,0,0.1,0.1,0.1,0.3
			s0,0.4-0.1,0.8c0,0.4-0.1,0.9-0.2,1.6c-0.1,0.7-0.1,1.6-0.2,2.6s-0.1,2.4-0.2,3.9c0,0.9,0.1,1.7,0.2,2.5c0.1,0.7,0.3,1.4,0.5,1.9
			c0.2,0.6,0.5,1,0.8,1.3s0.6,0.5,1,0.5c0.3,0,0.6-0.2,0.9-0.5s0.6-0.8,0.9-1.4c0.3-0.6,0.6-1.3,0.9-2.1s0.6-1.7,1-2.6
			C19.6,233.8,19.9,233.6,20.3,233.6z M16.3,213.9c0.1,0.1,0.1,0.2,0.1,0.4c0,0.4-0.2,0.8-0.7,1.2c-0.4,0.4-0.8,0.7-1.1,1
			s-0.6,0.6-0.9,0.9s-0.5,0.5-0.7,0.6c-0.2,0.2-0.4,0.2-0.5,0.2s-0.2,0-0.3-0.1c-0.1,0-0.2-0.1-0.3-0.3c-0.2-0.5-0.5-0.9-0.7-1.4
			s-0.4-1-0.6-1.4c-0.2-0.4-0.3-0.8-0.5-1.1c-0.1-0.3-0.2-0.5-0.2-0.7s0.1-0.5,0.3-0.7c0.1-0.1,0.3-0.3,0.5-0.7
			c0.3-0.3,0.6-0.7,0.9-1.1c0.3-0.4,0.6-0.7,0.9-1c0.3-0.3,0.5-0.5,0.6-0.6c0.2-0.3,0.4-0.4,0.6-0.4c0.2,0,0.3,0.1,0.4,0.4
			c0.1,0.1,0.2,0.4,0.4,0.9s0.4,0.9,0.7,1.5c0.2,0.5,0.5,1,0.7,1.5C16.1,213.5,16.3,213.8,16.3,213.9z"/>
		<path id="XMLID_58_" class="st0" d="M33.9,234.5c-0.5,1.5-0.9,3-1.4,4.3s-1,2.4-1.5,3.4c-0.5,0.9-1.1,1.7-1.8,2.2
			c-0.6,0.5-1.4,0.8-2.2,0.8c-1,0-1.8-0.5-2.4-1.5s-0.9-2.3-0.9-3.9c0-0.7,0-1.4,0.1-2s0.1-1.2,0.2-1.8s0.2-1.2,0.2-1.7
			c0.1-0.6,0.1-1.1,0.1-1.6c0-0.6-0.1-0.9-0.2-1.1s-0.3-0.3-0.5-0.3h-0.1c0,0-0.1,0-0.2,0s-0.3,0-0.5,0.1c-0.2,0-0.5,0.1-0.8,0.1
			c-0.2,0.5-0.4,0.9-0.5,1.2s-0.3,0.6-0.4,0.8s-0.2,0.4-0.3,0.6c-0.1,0.2-0.1,0.3-0.2,0.5c-0.2,0.4-0.3,0.6-0.4,0.7
			c-0.1,0.1-0.3,0.1-0.4,0.1s-0.2,0-0.3-0.1c-0.1-0.1-0.1-0.2-0.1-0.4c0-0.1,0-0.3,0.1-0.4c0.1-0.2,0.1-0.4,0.2-0.6
			c0.1-0.3,0.2-0.6,0.3-1c0.1-0.4,0.2-0.9,0.3-1.5c-0.4-0.2-0.7-0.6-1-1.3s-0.4-1.4-0.4-2.3c0-0.7,0.1-1.5,0.4-2.2
			c0.2-0.7,0.6-1.4,0.9-2.1c0.4-0.6,0.8-1.1,1.2-1.5c0.4-0.4,0.8-0.6,1.1-0.6c0.4,0,0.8,0.3,1.1,0.8c0.3,0.5,0.5,1.1,0.5,1.8
			c0,0.4,0,0.7-0.1,1.1c-0.1,0.4-0.2,0.7-0.3,1c-0.1,0.3-0.2,0.6-0.3,0.8c-0.1,0.2-0.1,0.4-0.1,0.6c0,0.2,0.1,0.3,0.2,0.3
			s0.3,0,0.5-0.1l1.4-0.6c0.5-0.2,1-0.3,1.4-0.3c0.6,0,1,0.2,1.3,0.6c0.2,0.4,0.3,1,0.3,1.7c0,0.3,0,0.9-0.1,1.8
			c-0.1,0.8-0.2,1.8-0.3,2.8c-0.1,1-0.2,2-0.2,3c-0.1,1-0.1,1.8-0.1,2.5s0.1,1.2,0.2,1.5s0.5,0.5,1,0.5c0.4,0,0.7-0.2,1-0.6
			c0.3-0.4,0.7-0.9,1-1.6c0.3-0.6,0.6-1.3,0.9-2.1c0.3-0.7,0.5-1.5,0.8-2.2c0.2-0.5,0.4-0.7,0.8-0.7C33.7,234,33.9,234.2,33.9,234.5
			c0,0.1,0,0.1,0,0.2C33.9,234.4,33.9,234.4,33.9,234.5z"/>
		<path id="XMLID_60_" class="st0" d="M47.4,233.6c0.1,0,0.2,0,0.3,0.1s0.1,0.2,0.1,0.4s0,0.3-0.1,0.4c-0.3,0.8-0.6,1.6-1,2.3
			c-0.3,0.7-0.7,1.4-1,1.9c-0.4,0.6-0.7,1.3-1,1.8c-0.4,0.6-0.9,1.3-1.4,1.8c-0.5,0.6-1,1.1-1.6,1.5s-1.2,0.8-1.9,1
			c-0.7,0.3-1.4,0.4-2.2,0.4c-0.6,0-1.2-0.1-1.9-0.3s-1.3-0.6-1.9-1.1c-0.6-0.5-1.1-1.3-1.4-2.2c-0.4-0.9-0.6-2.1-0.6-3.6
			c0-0.7,0.1-1.3,0.2-2c0.1-0.7,0.3-1.3,0.5-2c0.2-0.6,0.5-1.2,0.8-1.8s0.6-1,0.9-1.4c0.5-0.7,1.1-1.4,1.6-2
			c0.6-0.6,1.1-1.2,1.7-1.6c0.6-0.5,1.1-0.8,1.7-1.1c0.6-0.3,1.1-0.4,1.5-0.4c0.7,0,1.4,0.3,2,0.9c0.6,0.6,0.8,1.4,0.8,2.5
			c0,0.9-0.2,1.9-0.7,2.9s-1.1,2-1.8,2.9s-1.5,1.8-2.3,2.6s-1.5,1.5-2.2,2c0.4,0.9,0.8,1.5,1.4,1.9s1.1,0.6,1.7,0.6
			c0.9,0,1.7-0.3,2.4-0.9c0.7-0.6,1.3-1.3,1.9-2.1c0.6-0.8,1.1-1.7,1.5-2.6c0.4-0.9,0.8-1.7,1.1-2.4c0.1-0.2,0.2-0.4,0.4-0.5
			C47.1,233.6,47.2,233.6,47.4,233.6z M35.9,235c0,1.2,0.1,2.2,0.3,3.1c0.4-0.4,0.8-0.8,1.2-1.3s0.8-1,1.1-1.6
			c0.3-0.5,0.6-1.1,0.8-1.6c0.2-0.6,0.3-1.1,0.3-1.6c0-0.8-0.2-1.4-0.5-1.8c-0.3-0.4-0.7-0.6-1-0.6c-0.2,0-0.4,0.1-0.7,0.4
			c-0.2,0.2-0.5,0.6-0.7,1.1s-0.4,1-0.6,1.7C36,233.3,35.9,234.1,35.9,235z"/>
		<path id="XMLID_63_" class="st0" d="M68.5,233.6c0.1,0,0.2,0,0.3,0.1c0.1,0.1,0.1,0.2,0.1,0.4s0,0.3-0.1,0.4
			c-0.6,1.8-1.2,3.3-1.7,4.6s-1,2.4-1.6,3.3c-0.5,0.9-1.1,1.6-1.6,2c-0.6,0.5-1.2,0.7-1.8,0.7c-0.8,0-1.5-0.2-2-0.6
			c-0.5-0.4-0.9-0.9-1.2-1.5s-0.5-1.3-0.6-2.1s-0.1-1.5-0.1-2.3c0-0.5,0-1.1,0-1.6s0-1,0.1-1.5s0.1-0.9,0.1-1.3c0-0.4,0-0.7,0-0.9
			c0-0.4-0.1-0.6-0.2-0.8c-0.1-0.2-0.3-0.3-0.4-0.3c-0.2,0-0.3,0.1-0.4,0.3c-0.1,0.2-0.2,0.4-0.3,0.6c-0.1,0.2-0.2,0.7-0.4,1.3
			s-0.4,1.3-0.7,2.1s-0.5,1.6-0.8,2.4c-0.3,0.8-0.5,1.6-0.8,2.3c-0.3,0.9-0.6,1.6-0.9,2.1c-0.3,0.5-0.6,1-0.8,1.3
			c-0.3,0.3-0.5,0.5-0.8,0.6c-0.2,0.1-0.5,0.2-0.7,0.2s-0.4,0-0.6-0.1c-0.2-0.1-0.4-0.2-0.6-0.4c-0.2-0.2-0.3-0.4-0.4-0.7
			c-0.1-0.3-0.2-0.7-0.2-1.2c0-1-0.1-2.1-0.1-3.3s0-2.3,0-3.4c0-0.5,0-1,0-1.5s0-0.9,0-1.4c0-0.6,0-1-0.1-1.2s-0.1-0.4-0.2-0.4
			c-0.2,0-0.4,0.2-0.5,0.6c-0.1,0.4-0.4,1.1-0.8,2c-0.1,0.3-0.2,0.5-0.4,0.6c-0.1,0.1-0.3,0.2-0.4,0.2c-0.1,0-0.2,0-0.3-0.1
			s-0.1-0.2-0.1-0.5c0-0.1,0-0.3,0.1-0.6s0.2-0.6,0.4-1c0.1-0.4,0.3-0.7,0.4-1.1c0.1-0.4,0.3-0.7,0.4-1c0.2-0.5,0.4-0.9,0.6-1.4
			c0.2-0.5,0.5-0.9,0.8-1.3c0.3-0.4,0.6-0.7,1-1s0.8-0.4,1.2-0.4c0.6,0,1.1,0.3,1.5,0.9c0.4,0.6,0.7,1.6,0.7,2.9c0,1,0,2,0,2.9
			s0,1.7,0,2.4s0,1.2,0,1.6c0,0.4,0,0.6,0,0.6s0.1-0.2,0.3-0.5c0.1-0.4,0.3-0.8,0.5-1.4c0.2-0.6,0.5-1.2,0.7-2
			c0.3-0.7,0.6-1.5,0.9-2.2c0.3-0.8,0.6-1.5,1-2.2c0.3-0.7,0.7-1.3,1-1.8c0.4-0.6,0.7-1,1.1-1.3c0.4-0.3,0.9-0.4,1.4-0.4
			c0.7,0,1.2,0.4,1.5,1.3c0.3,0.8,0.5,2,0.5,3.4c0,0.4,0,0.8,0,1.3s0,1.1-0.1,1.6c0,0.6-0.1,1.1-0.1,1.7c0,0.6,0,1.1,0,1.6
			c0,0.8,0,1.5,0.1,2s0.2,0.9,0.3,1.2s0.2,0.5,0.4,0.6c0.1,0.1,0.3,0.1,0.4,0.1c0.4,0,0.8-0.2,1.1-0.5c0.3-0.4,0.6-0.8,0.9-1.4
			c0.3-0.6,0.6-1.3,0.9-2.1s0.6-1.6,1-2.5C67.9,233.8,68.2,233.6,68.5,233.6z"/>
		<path id="XMLID_65_" class="st0" d="M86.5,234.4c-0.5,1.5-1,2.8-1.5,3.9c-0.5,1-0.9,1.9-1.4,2.7s-0.9,1.4-1.4,2s-1,1.2-1.5,1.7
			c-0.4,0.5-0.8,0.9-1.3,1.3c-0.4,0.4-0.9,0.8-1.3,1.2c0.2,0.7,0.4,1.5,0.5,2.3s0.2,1.5,0.2,2.2c0,1.9-0.3,3.5-0.8,4.9
			c-0.5,1.4-1,2.7-1.7,3.7c-0.6,1-1.3,1.8-2,2.5c-0.7,0.6-1.2,1.1-1.7,1.3c-0.5,0.3-0.9,0.5-1.3,0.6c-0.4,0.1-0.8,0.2-1.1,0.2
			c-1,0-1.7-0.4-2.2-1.3c-0.5-0.9-0.7-2.1-0.7-3.5c0-1.3,0.2-2.5,0.6-3.7c0.4-1.2,0.9-2.2,1.6-3.2c0.6-1,1.4-1.9,2.2-2.8
			c0.8-0.9,1.7-1.7,2.6-2.4c-0.2-1.5-0.7-2.8-1.4-4c-0.2-0.4-0.4-0.6-0.4-0.7c0-0.3,0.1-0.5,0.4-0.6s0.6-0.3,1-0.5s0.8-0.4,1.2-0.7
			c0.4-0.3,0.9-0.7,1.2-1.3c0.3-0.4,0.5-0.8,0.7-1.3s0.3-0.9,0.4-1.3c0.1-0.4,0.1-0.9,0.2-1.3c0-0.4,0-0.8,0-1.2
			c0-1.1-0.1-2.1-0.3-3c-0.2-0.8-0.4-1.5-0.7-2.1c-0.3-0.5-0.6-0.9-1-1.2s-0.8-0.4-1.2-0.4c-0.4,0-0.8,0.1-1.1,0.4
			c-0.3,0.3-0.6,0.6-0.8,1.1c-0.2,0.5-0.4,1-0.5,1.6s-0.1,1.2-0.1,1.9c0,0.5,0,1,0.1,1.4c0.1,0.5,0.1,0.9,0.3,1.3
			c0.1,0.4,0.3,0.7,0.4,0.9c0.2,0.2,0.4,0.4,0.6,0.4c0.6,0.1,0.9,0.3,0.9,0.6c0,0.1-0.1,0.3-0.2,0.5s-0.3,0.3-0.5,0.5
			c-0.2,0.1-0.5,0.3-0.8,0.4c-0.3,0.1-0.7,0.1-1,0.1c-0.4,0-0.8-0.1-1.2-0.2c-0.4-0.2-0.9-0.4-1.2-0.8c-0.4-0.4-0.7-0.8-1-1.4
			c-0.3-0.6-0.4-1.3-0.4-2.2c0-1.1,0.2-2.2,0.6-3.3s1-2,1.7-2.8s1.6-1.5,2.5-1.9c1-0.5,2-0.7,3.1-0.7c0.6,0,1.2,0.1,1.9,0.3
			c0.7,0.2,1.3,0.5,1.9,1.1c0.6,0.5,1.1,1.3,1.5,2.3s0.6,2.3,0.6,3.9c0,1.1-0.2,2.4-0.7,3.7s-1.3,2.6-2.4,3.8
			c-0.2,0.2-0.4,0.4-0.7,0.6c-0.3,0.2-0.6,0.4-0.9,0.7c-0.3,0.2-0.6,0.4-0.9,0.6c-0.3,0.2-0.5,0.3-0.8,0.4c0.4,0.3,0.8,0.7,1.1,1.1
			c0.3,0.4,0.6,0.8,0.8,1.3c0.5-0.3,0.9-0.7,1.3-1s0.8-0.6,1.1-0.9c0.7-0.7,1.4-1.4,2-2.2c0.6-0.7,1.1-1.5,1.5-2.3s0.8-1.6,1.1-2.4
			c0.3-0.8,0.6-1.6,0.9-2.5c0.2-0.5,0.5-0.8,0.9-0.8c0.1,0,0.2,0,0.3,0.1c0.1,0.1,0.1,0.2,0.1,0.3C86.5,234.1,86.5,234.2,86.5,234.4
			z M71.6,262.5c0.3,0,0.6-0.4,0.9-1c0.4-0.7,0.7-1.6,1-2.8c0.3-1.1,0.6-2.4,0.8-3.9c0.2-1.4,0.3-2.9,0.3-4.4
			c-0.5,0.6-1,1.2-1.5,1.9s-0.8,1.4-1.2,2.2c-0.3,0.8-0.6,1.7-0.8,2.7c-0.2,1-0.3,2.1-0.3,3.3c0,0.7,0.1,1.2,0.2,1.5
			C71.2,262.4,71.4,262.5,71.6,262.5z"/>
		<path id="XMLID_68_" class="st0" d="M100,233.6c0.1,0,0.2,0,0.3,0.1c0.1,0.1,0.1,0.2,0.1,0.4s0,0.3-0.1,0.4
			c-0.3,0.8-0.6,1.6-1,2.3c-0.3,0.7-0.7,1.4-1,1.9c-0.4,0.6-0.7,1.3-1,1.8c-0.4,0.6-0.9,1.3-1.4,1.8s-1,1.1-1.6,1.5s-1.2,0.8-1.9,1
			c-0.7,0.3-1.4,0.4-2.2,0.4c-0.6,0-1.2-0.1-1.9-0.3c-0.7-0.2-1.3-0.6-1.9-1.1s-1.1-1.3-1.4-2.2c-0.4-0.9-0.6-2.1-0.6-3.6
			c0-0.7,0.1-1.3,0.2-2s0.3-1.3,0.5-2c0.2-0.6,0.5-1.2,0.8-1.8s0.6-1,0.9-1.4c0.5-0.7,1.1-1.4,1.6-2c0.6-0.6,1.1-1.2,1.7-1.6
			c0.6-0.5,1.1-0.8,1.7-1.1s1.1-0.4,1.5-0.4c0.7,0,1.4,0.3,2,0.9c0.6,0.6,0.8,1.4,0.8,2.5c0,0.9-0.2,1.9-0.7,2.9s-1.1,2-1.8,2.9
			c-0.7,0.9-1.5,1.8-2.3,2.6s-1.5,1.5-2.2,2c0.4,0.9,0.8,1.5,1.4,1.9s1.1,0.6,1.7,0.6c0.9,0,1.7-0.3,2.4-0.9
			c0.7-0.6,1.3-1.3,1.9-2.1s1.1-1.7,1.5-2.6c0.4-0.9,0.8-1.7,1.1-2.4c0.1-0.2,0.2-0.4,0.4-0.5C99.7,233.6,99.8,233.6,100,233.6z
			 M88.5,235c0,1.2,0.1,2.2,0.3,3.1c0.4-0.4,0.8-0.8,1.2-1.3c0.4-0.5,0.8-1,1.1-1.6c0.3-0.5,0.6-1.1,0.8-1.6
			c0.2-0.6,0.3-1.1,0.3-1.6c0-0.8-0.2-1.4-0.5-1.8c-0.3-0.4-0.7-0.6-1-0.6c-0.2,0-0.4,0.1-0.7,0.4c-0.2,0.2-0.5,0.6-0.7,1.1
			s-0.4,1-0.6,1.7C88.6,233.3,88.5,234.1,88.5,235z"/>
	</g>
	<g id="XMLID_5_">
		<path id="XMLID_14_" class="st1" d="M-69.2,277.9v-12.8h5.3c0.6,0,1.1,0.1,1.5,0.4c0.5,0.2,0.9,0.5,1.2,0.9
			c0.3,0.4,0.6,0.8,0.8,1.3s0.3,1,0.3,1.5s-0.1,1-0.3,1.5s-0.4,0.9-0.7,1.3c-0.3,0.4-0.7,0.7-1.2,0.9c-0.5,0.2-1,0.3-1.5,0.3H-68
			v4.7L-69.2,277.9L-69.2,277.9z M-67.9,272h4.1c0.4,0,0.7-0.1,1-0.2c0.3-0.2,0.6-0.4,0.8-0.6c0.2-0.3,0.4-0.6,0.5-0.9
			c0.1-0.4,0.2-0.7,0.2-1.1c0-0.4-0.1-0.8-0.2-1.1c-0.1-0.4-0.3-0.7-0.6-0.9c-0.2-0.3-0.5-0.5-0.8-0.6c-0.3-0.2-0.7-0.2-1-0.2h-4
			V272L-67.9,272z"/>
		<path id="XMLID_17_" class="st1" d="M-58,277.9v-12.8h1.2v12.8H-58L-58,277.9z"/>
		<path id="XMLID_19_" class="st1" d="M-54.6,276.9l8.7-10.7h-8.6v-1.1h10v1l-8.6,10.7h8.6v1.1h-10.2v-1H-54.6z"/>
		<path id="XMLID_21_" class="st1" d="M-43.4,276.9l8.7-10.7h-8.6v-1.1h10v1l-8.6,10.7h8.6v1.1h-10.2
			C-43.4,277.9-43.4,276.9-43.4,276.9z"/>
		<path id="XMLID_23_" class="st1" d="M-32.3,277.9l5.4-12.8h1l5.4,12.8h-1.4l-1.7-4h-5.8l-1.6,4H-32.3z M-26.5,266.6l-2.6,6.3h5.2
			L-26.5,266.6z"/>
		<path id="XMLID_26_" class="st1" d="M-6,277.9l-1.5-1.6c-0.5,0.5-1.1,1-1.7,1.3c-0.7,0.3-1.4,0.5-2.1,0.5c-0.6,0-1.1-0.1-1.6-0.3
			s-0.9-0.4-1.3-0.7c-0.4-0.3-0.7-0.7-0.9-1.1c-0.2-0.4-0.3-0.9-0.3-1.4c0-0.4,0.1-0.8,0.2-1.2c0.1-0.4,0.3-0.7,0.6-1
			s0.5-0.6,0.9-0.9c0.3-0.3,0.7-0.5,1-0.8c-0.3-0.3-0.6-0.7-0.8-0.9c-0.2-0.3-0.4-0.5-0.5-0.8c-0.1-0.2-0.2-0.5-0.3-0.7
			s-0.1-0.4-0.1-0.7c0-0.4,0.1-0.8,0.2-1.1c0.2-0.3,0.4-0.6,0.7-0.9s0.6-0.5,1-0.6c0.4-0.1,0.8-0.2,1.3-0.2c0.4,0,0.8,0.1,1.2,0.2
			c0.4,0.1,0.7,0.3,0.9,0.5c0.3,0.2,0.5,0.5,0.6,0.8c0.2,0.3,0.2,0.7,0.2,1c0,0.4-0.1,0.7-0.2,1c-0.2,0.3-0.4,0.6-0.6,0.9
			c-0.3,0.3-0.5,0.5-0.9,0.8c-0.3,0.2-0.7,0.5-1.1,0.7l3.6,3.8c0.2-0.5,0.4-1,0.6-1.5c0.1-0.5,0.2-1.1,0.2-1.7h1
			c0,0.7-0.1,1.4-0.3,2.1c-0.2,0.7-0.5,1.3-0.8,1.8l2.4,2.5L-6,277.9L-6,277.9z M-11.2,277.1c0.6,0,1.2-0.1,1.7-0.4s1-0.6,1.4-1.1
			l-3.9-4.1c-0.6,0.4-1.2,0.9-1.6,1.4c-0.4,0.5-0.6,1.1-0.6,1.7c0,0.4,0.1,0.7,0.3,1.1c0.2,0.3,0.4,0.6,0.7,0.8s0.6,0.4,1,0.5
			C-12,277-11.6,277.1-11.2,277.1z M-13.3,267.7c0,0.1,0,0.3,0.1,0.4c0,0.1,0.1,0.3,0.2,0.5c0.1,0.2,0.3,0.4,0.5,0.6
			s0.5,0.5,0.8,0.9c0.3-0.2,0.7-0.5,1-0.7s0.5-0.4,0.8-0.6c0.2-0.2,0.4-0.4,0.5-0.6s0.2-0.5,0.2-0.7c0-0.5-0.2-0.9-0.5-1.2
			c-0.3-0.3-0.8-0.5-1.3-0.5c-0.3,0-0.6,0-0.8,0.1c-0.3,0.1-0.5,0.2-0.7,0.4c-0.2,0.2-0.3,0.4-0.4,0.6
			C-13.3,267.2-13.3,267.4-13.3,267.7z"/>
		<path id="XMLID_30_" class="st1" d="M11.3,276c-1.2,1.3-2.6,1.9-4.1,1.9c-0.9,0-1.7-0.2-2.4-0.6c-0.7-0.4-1.4-0.9-1.9-1.5
			c-0.5-0.6-1-1.3-1.3-2.1c-0.3-0.8-0.5-1.6-0.5-2.4c0-0.9,0.1-1.7,0.4-2.5s0.7-1.5,1.2-2.1c0.5-0.6,1.1-1.1,1.9-1.4
			s1.5-0.5,2.4-0.5c0.6,0,1.2,0.1,1.7,0.2c0.5,0.1,1,0.3,1.4,0.6c0.4,0.2,0.8,0.5,1.1,0.9c0.3,0.3,0.6,0.7,0.8,1.1l-1,0.6
			c-0.4-0.8-1-1.4-1.6-1.7c-0.7-0.4-1.4-0.6-2.3-0.6c-0.7,0-1.3,0.2-1.9,0.5s-1.1,0.7-1.5,1.2s-0.7,1.1-0.9,1.7
			c-0.2,0.6-0.3,1.3-0.3,2s0.1,1.4,0.4,2.1c0.2,0.6,0.6,1.2,1,1.7s0.9,0.9,1.5,1.2c0.6,0.3,1.2,0.4,1.9,0.4s1.4-0.2,2.1-0.5
			s1.3-0.9,1.9-1.6v-2.1H8.5v-1h3.9v6.3h-1.1L11.3,276L11.3,276z"/>
		<path id="XMLID_32_" class="st1" d="M15.1,277.9v-12.8h5.4c0.6,0,1.1,0.1,1.5,0.4c0.5,0.2,0.9,0.5,1.2,0.9
			c0.3,0.4,0.6,0.8,0.8,1.3c0.2,0.5,0.3,1,0.3,1.5s-0.1,0.9-0.2,1.3c-0.1,0.4-0.3,0.8-0.6,1.2c-0.3,0.3-0.6,0.6-0.9,0.9
			c-0.3,0.2-0.7,0.4-1.2,0.5l3.2,4.9h-1.4l-3-4.7h-3.8v4.7C16.3,277.9,15.1,277.9,15.1,277.9z M16.3,272h4.2c0.4,0,0.7-0.1,1-0.2
			c0.3-0.2,0.6-0.4,0.8-0.7c0.2-0.3,0.4-0.6,0.5-0.9s0.2-0.7,0.2-1.1c0-0.4-0.1-0.8-0.2-1.1c-0.1-0.4-0.3-0.7-0.6-0.9
			c-0.2-0.3-0.5-0.5-0.8-0.6c-0.3-0.2-0.7-0.2-1-0.2h-4.1V272L16.3,272z"/>
		<path id="XMLID_35_" class="st1" d="M27,277.9v-12.8h1.2v12.8H27L27,277.9z"/>
		<path id="XMLID_37_" class="st1" d="M31.5,277.9v-12.8h1.2v11.7h7.4v1.1H31.5L31.5,277.9z"/>
		<path id="XMLID_39_" class="st1" d="M42.1,277.9v-12.8h1.2v11.7h7.4v1.1H42.1L42.1,277.9z"/>
	</g>
	<g id="XMLID_6_">
		<rect id="XMLID_13_" x="63.8" y="271" class="st1" width="36.1" height="1.8"/>
	</g>
	<g id="XMLID_8_">
		<rect id="XMLID_12_" x="-119.6" y="271" class="st1" width="36.1" height="1.8"/>
	</g>
</g>
</svg>
