<?xml version="1.0" encoding="utf-8"?>
<!-- Generator: Adobe Illustrator 19.0.0, SVG Export Plug-In . SVG Version: 6.00 Build 0)  -->
<svg version="1.1" id="Layer_1" xmlns="http://www.w3.org/2000/svg" xmlns:xlink="http://www.w3.org/1999/xlink" x="0px" y="0px"
	 viewBox="-149 181 280 120" style="enable-background:new -149 181 280 120;" xml:space="preserve">
<style type="text/css">
	.st0{fill:#BDA882;}
</style>
<g id="XMLID_3_">
	<path id="XMLID_11_" class="st0" d="M-83.2,227.5c0,1.9-0.3,3.6-0.8,5.1c-0.6,1.6-1.3,2.9-2.3,4.1s-2.2,2.1-3.6,2.9
		c-1.4,0.7-2.9,1.2-4.5,1.4c1,0.2,2,0.4,2.9,0.8c1,0.4,1.8,0.9,2.6,1.6c0.7,0.7,1.4,1.6,1.8,2.7c0.5,1.1,0.7,2.5,0.7,4.1
		c0,1.3-0.3,2.5-0.8,3.7s-1.2,2.2-2.1,3.1c-0.9,0.9-2,1.6-3.3,2.1s-2.6,0.8-4.1,0.8c-0.8,0-1.6-0.1-2.4-0.4s-1.5-0.7-2.1-1.2
		s-1.1-1.2-1.4-1.9c-0.4-0.8-0.5-1.6-0.5-2.6c0-0.4,0-0.7,0.1-0.8s0.2-0.2,0.3-0.2c0.1,0,0.3,0.1,0.4,0.2c0.1,0.1,0.2,0.3,0.2,0.5
		c0.3,1,0.9,1.8,1.8,2.4c0.8,0.6,1.8,0.9,2.8,0.9c0.9,0,1.8-0.2,2.5-0.6c0.7-0.4,1.3-0.9,1.8-1.5s0.9-1.3,1.1-2.1s0.4-1.5,0.4-2.3
		c0-1.6-0.3-2.9-0.9-4c-0.6-1-1.4-1.9-2.3-2.5s-1.8-1-2.9-1.3c-1-0.3-1.9-0.4-2.7-0.5c-0.3,0-0.5-0.1-0.6-0.3
		c-0.1-0.1-0.2-0.3-0.2-0.5s0.1-0.4,0.2-0.6c0.1-0.2,0.3-0.3,0.5-0.3c1.9-0.2,3.6-0.5,5-1s2.6-1.3,3.5-2.2c0.9-1,1.6-2.1,2.1-3.5
		s0.7-3,0.7-4.8c0-1.4-0.3-2.7-0.9-3.9s-1.4-2.2-2.4-3.1c-1-0.9-2.2-1.5-3.6-2s-2.9-0.7-4.5-0.7c-1.5,0-2.9,0.2-4.5,0.5
		c-1.5,0.3-2.9,0.8-4.1,1.5s-2.3,1.6-3.1,2.7c-0.8,1.1-1.2,2.5-1.2,4.2c0,0.9,0.1,1.7,0.3,2.5c0.2,0.8,0.5,1.5,0.8,2.2
		c0.3,0.6,0.6,1.2,0.9,1.7s0.5,0.8,0.7,1c0.1,0.1,0.2,0.3,0.3,0.4c0.1,0.2,0.1,0.3,0.1,0.4c0,0.2-0.1,0.3-0.2,0.4
		c-0.1,0.1-0.4,0.2-0.7,0.2c-0.5,0-1.1-0.2-1.9-0.5s-1.5-0.8-2.3-1.5c-0.7-0.7-1.4-1.5-1.9-2.6c-0.5-1-0.8-2.3-0.8-3.7
		c0-1,0.2-2,0.6-3.1s1-2.2,1.7-3.2c0.8-1.1,1.7-2.1,2.8-3c1.1-0.9,2.4-1.8,3.8-2.5s3-1.3,4.7-1.7s3.6-0.6,5.6-0.6
		c2.8,0,5.2,0.4,7.2,1.2s3.6,1.9,4.9,3.1c1.3,1.3,2.2,2.7,2.8,4.3C-83.5,224.3-83.2,225.9-83.2,227.5z M-104.8,223.5
		c0.2-0.4,0.5-0.8,0.8-1c0.4-0.3,0.8-0.4,1.2-0.4c0.2,0,0.4,0,0.6,0.1c0.3,0.1,0.4,0.3,0.4,0.5s0,0.3,0,0.4c0,0.1-0.1,0.3-0.1,0.5
		c-0.4,1.7-0.7,3.4-0.9,5.1c-0.3,1.7-0.5,3.4-0.7,5.1c-0.2,1.7-0.4,3.3-0.5,4.8s-0.2,3-0.3,4.3c-0.1,1.3-0.1,2.5-0.1,3.5
		s0,1.8,0,2.4c0,2,0,3.5,0,4.7s0,2,0,2.6c0,0.1,0,0.2,0,0.3c0,0.1,0,0.3-0.1,0.4c0,0.1-0.1,0.2-0.2,0.3s-0.2,0.1-0.4,0.1
		c-0.3,0-0.5,0-0.7-0.1s-0.4-0.2-0.6-0.3c-0.2-0.1-0.4-0.2-0.6-0.3s-0.4-0.1-0.5-0.1c-0.2,0-0.4,0.1-0.5,0.2
		c-0.1,0.1-0.3,0.2-0.5,0.2s-0.4-0.1-0.6-0.2c-0.1-0.1-0.2-0.3-0.3-0.4c-0.1-0.2-0.1-0.4-0.1-0.6c0-0.2,0-0.4,0-0.5
		c0-0.7,0-1.8,0.1-3.3c0-1.4,0.1-3.2,0.2-5.1c0.1-1.1,0.1-2.4,0.2-3.7s0.2-2.6,0.3-3.9c0.1-1.3,0.2-2.6,0.4-3.8
		c0.1-1.2,0.2-2.4,0.4-3.4c0.1-1,0.2-1.9,0.3-2.6c0.1-0.7,0.2-1.2,0.2-1.5c0.1-0.9,0.3-1.6,0.4-2.2c0.1-0.6,0.3-1,0.5-1.2
		c0.1-0.2,0.3-0.3,0.5-0.5c0.2-0.1,0.4-0.2,0.6-0.3C-105.4,223.5-105.1,223.5-104.8,223.5z"/>
	<path id="XMLID_43_" class="st0" d="M-67.3,245c0.1,0,0.2,0,0.3,0.1c0.1,0.1,0.1,0.2,0.1,0.4s0,0.3-0.1,0.4c-0.3,0.8-0.6,1.6-1,2.3
		c-0.3,0.7-0.7,1.4-1,1.9c-0.4,0.6-0.7,1.3-1,1.8c-0.4,0.6-0.9,1.3-1.4,1.8s-1,1.1-1.6,1.5s-1.2,0.8-1.9,1c-0.7,0.3-1.4,0.4-2.2,0.4
		c-0.6,0-1.2-0.1-1.9-0.3c-0.7-0.2-1.3-0.6-1.9-1.1s-1.1-1.3-1.4-2.2c-0.4-0.9-0.6-2.1-0.6-3.6c0-0.7,0.1-1.3,0.2-2s0.3-1.3,0.5-2
		c0.2-0.6,0.5-1.2,0.8-1.8s0.6-1,0.9-1.4c0.5-0.7,1.1-1.4,1.6-2s1.1-1.2,1.7-1.6c0.6-0.5,1.1-0.8,1.7-1.1s1.1-0.4,1.5-0.4
		c0.7,0,1.4,0.3,2,0.9c0.6,0.6,0.8,1.4,0.8,2.5c0,0.9-0.2,1.9-0.7,2.9s-1.1,2-1.8,2.9s-1.5,1.8-2.3,2.6s-1.5,1.5-2.2,2
		c0.4,0.9,0.8,1.5,1.4,1.9s1.1,0.6,1.7,0.6c0.9,0,1.7-0.3,2.4-0.9c0.7-0.6,1.3-1.3,1.9-2.1s1.1-1.7,1.5-2.6c0.4-0.9,0.8-1.7,1.1-2.4
		c0.1-0.2,0.2-0.4,0.4-0.5C-67.6,245-67.5,245-67.3,245z M-78.8,246.4c0,1.2,0.1,2.2,0.3,3.1c0.4-0.4,0.8-0.8,1.2-1.3
		c0.4-0.5,0.8-1,1.1-1.6c0.3-0.5,0.6-1.1,0.8-1.6c0.2-0.6,0.3-1.1,0.3-1.6c0-0.8-0.2-1.4-0.5-1.8s-0.7-0.7-1-0.7
		c-0.2,0-0.4,0.1-0.7,0.4c-0.2,0.2-0.5,0.6-0.7,1.1s-0.4,1-0.6,1.7C-78.7,244.7-78.8,245.5-78.8,246.4z"/>
	<path id="XMLID_46_" class="st0" d="M-57,245c0.1,0,0.2,0,0.3,0.1c0.1,0.1,0.1,0.2,0.1,0.4c0,0.1,0,0.3-0.1,0.4
		c-0.4,1.1-0.8,2.2-1.1,3.1c-0.4,1-0.7,1.8-1.1,2.6c-0.3,0.8-0.7,1.4-1,2s-0.6,1-0.9,1.4s-0.6,0.7-0.9,0.9c-0.3,0.2-0.6,0.4-0.9,0.5
		c-0.3,0.1-0.6,0.1-1,0.1c-0.4,0-0.9-0.1-1.4-0.3c-0.5-0.2-1-0.5-1.4-1.1s-0.8-1.3-1.1-2.2c-0.3-1-0.4-2.2-0.4-3.7
		c0-0.4,0-1.1,0.1-2.1c0-1,0.1-2.2,0.2-3.6c0.1-1.4,0.2-3,0.3-4.7c0.1-1.8,0.3-3.6,0.4-5.6c0.1-1.2,0.2-2.5,0.4-3.9
		c0.1-1.4,0.3-2.8,0.5-4.2s0.3-2.6,0.5-3.8c0.2-1.1,0.3-2,0.4-2.7s0.4-1.2,0.8-1.6c0.4-0.4,0.8-0.8,1.3-1.3c0.2-0.2,0.4-0.4,0.6-0.6
		c0.2-0.2,0.4-0.4,0.6-0.6c0.2-0.2,0.4-0.3,0.6-0.5s0.4-0.2,0.5-0.2c0.3,0,0.4,0.1,0.4,0.4c0,0.2,0,0.6-0.1,1.2
		c-0.1,0.6-0.2,1.5-0.4,2.7c-0.2,1.3-0.4,3-0.6,5.1c-0.2,2.1-0.5,4.9-0.8,8.2c-0.1,0.7-0.1,1.5-0.2,2.4c-0.1,0.9-0.2,1.9-0.2,2.9
		c-0.1,1-0.2,2.1-0.2,3.2c-0.1,1.1-0.1,2.1-0.2,3c-0.1,0.9-0.1,1.8-0.1,2.6s-0.1,1.4-0.1,1.9c0,1.4,0.1,2.4,0.4,3.2
		c0.3,0.8,0.8,1.2,1.4,1.2c0.4,0,0.7-0.2,1-0.5c0.3-0.3,0.6-0.8,0.9-1.4c0.3-0.6,0.6-1.3,0.9-2c0.3-0.8,0.6-1.6,1-2.5
		c0.1-0.2,0.2-0.4,0.4-0.5C-57.3,245-57.1,245-57,245z"/>
	<path id="XMLID_48_" class="st0" d="M-46.6,245c0.1,0,0.2,0,0.3,0.1c0.1,0.1,0.1,0.2,0.1,0.4c0,0.1,0,0.3-0.1,0.4
		c-0.4,1.1-0.8,2.2-1.1,3.1c-0.4,1-0.7,1.8-1.1,2.6c-0.3,0.8-0.7,1.4-1,2c-0.3,0.6-0.6,1-0.9,1.4c-0.3,0.4-0.6,0.7-0.9,0.9
		c-0.3,0.2-0.6,0.4-0.9,0.5c-0.3,0.1-0.6,0.1-1,0.1s-0.9-0.1-1.4-0.3c-0.5-0.2-1-0.5-1.4-1.1c-0.4-0.6-0.8-1.3-1.1-2.2
		c-0.3-1-0.4-2.2-0.4-3.7c0-0.4,0-1.1,0.1-2.1c0-1,0.1-2.2,0.2-3.6c0.1-1.4,0.2-3,0.3-4.7c0.1-1.8,0.3-3.6,0.4-5.6
		c0.1-1.2,0.2-2.5,0.4-3.9c0.1-1.4,0.3-2.8,0.5-4.2c0.2-1.4,0.3-2.6,0.5-3.8c0.2-1.1,0.3-2,0.4-2.7c0.1-0.7,0.4-1.2,0.8-1.6
		c0.4-0.4,0.8-0.8,1.3-1.3c0.2-0.2,0.4-0.4,0.6-0.6s0.4-0.4,0.6-0.6c0.2-0.2,0.4-0.3,0.6-0.5c0.2-0.2,0.4-0.2,0.5-0.2
		c0.3,0,0.4,0.1,0.4,0.4c0,0.2,0,0.6-0.1,1.2c-0.1,0.6-0.2,1.5-0.4,2.7c-0.2,1.3-0.4,3-0.6,5.1c-0.2,2.1-0.5,4.9-0.8,8.2
		c-0.1,0.7-0.1,1.5-0.2,2.4c-0.1,0.9-0.2,1.9-0.2,2.9c-0.1,1-0.2,2.1-0.2,3.2c-0.1,1.1-0.1,2.1-0.2,3s-0.1,1.8-0.1,2.6
		s-0.1,1.4-0.1,1.9c0,1.4,0.1,2.4,0.4,3.2c0.3,0.8,0.8,1.2,1.4,1.2c0.4,0,0.7-0.2,1-0.5c0.3-0.3,0.6-0.8,0.9-1.4
		c0.3-0.6,0.6-1.3,0.9-2c0.3-0.8,0.6-1.6,1-2.5c0.1-0.2,0.2-0.4,0.4-0.5C-46.9,245-46.8,245-46.6,245z"/>
	<path id="XMLID_50_" class="st0" d="M-30.8,245.9c-0.6,1.8-1.1,3.3-1.7,4.7c-0.5,1.3-1,2.4-1.5,3.3c-0.5,0.9-1.1,1.6-1.6,2
		c-0.5,0.4-1.2,0.7-1.9,0.7c-0.5,0-0.9-0.2-1.2-0.5c-0.3-0.3-0.6-0.7-0.8-1.1c-0.2-0.4-0.4-0.8-0.5-1.1c-0.1-0.4-0.2-0.6-0.2-0.7
		c0,0,0-0.1-0.1-0.2c0-0.1,0-0.1-0.1-0.1c0,0-0.1,0-0.1,0.1s-0.1,0.1-0.1,0.2c-0.1,0.1-0.2,0.4-0.5,0.8c-0.3,0.4-0.6,0.8-1,1.2
		c-0.4,0.4-0.8,0.7-1.3,1c-0.5,0.3-1,0.5-1.6,0.5c-0.5,0-0.9-0.1-1.3-0.4c-0.4-0.3-0.8-0.7-1.1-1.2c-0.3-0.5-0.6-1.1-0.8-1.8
		c-0.2-0.7-0.3-1.4-0.3-2.2c0-1.7,0.3-3.3,0.8-4.8s1.4-3,2.6-4.5c0.6-0.7,1.2-1.4,1.9-1.9c0.7-0.6,1.3-1,1.9-1.4s1.2-0.7,1.8-0.9
		s1.1-0.3,1.5-0.3c0.3,0,0.6,0,0.8,0.1c0.2,0.1,0.5,0.3,0.7,0.5c0.2,0.2,0.4,0.5,0.5,0.9c0.1,0.4,0.2,0.9,0.2,1.4
		c0,0.6-0.1,1.2-0.3,1.9c-0.2,0.7-0.5,1.3-0.8,1.9c-0.4,0.6-0.8,1.1-1.3,1.5s-1.1,0.6-1.8,0.6c-0.4,0-0.6-0.2-0.6-0.5
		c0-0.2,0.1-0.6,0.2-1.1c0.1-0.5,0.2-1,0.2-1.4c0-0.2,0-0.4,0-0.6s-0.1-0.5-0.1-0.7c-0.1-0.2-0.2-0.4-0.3-0.6
		c-0.1-0.2-0.3-0.2-0.6-0.2c-0.5,0-1,0.2-1.4,0.7c-0.4,0.5-0.7,1.1-1,1.8c-0.3,0.7-0.5,1.4-0.6,2.2s-0.2,1.4-0.2,2
		c0,0.7,0.1,1.4,0.2,1.9c0.1,0.5,0.3,0.9,0.5,1.2c0.2,0.3,0.4,0.5,0.7,0.6c0.3,0.1,0.5,0.2,0.8,0.2c0.7,0,1.2-0.2,1.7-0.7
		c0.5-0.4,1-0.9,1.3-1.5c0.4-0.5,0.7-1,0.9-1.5c0.2-0.4,0.4-0.7,0.6-0.7c0.2,0,0.3,0.2,0.4,0.6c0.1,0.9,0.2,1.6,0.4,2.2
		c0.1,0.6,0.3,1,0.4,1.3c0.1,0.3,0.3,0.6,0.4,0.7c0.1,0.1,0.3,0.2,0.5,0.2c0.3,0,0.6-0.2,0.9-0.5s0.6-0.8,0.9-1.4
		c0.3-0.6,0.6-1.3,0.9-2.1c0.3-0.8,0.7-1.6,1-2.5c0.2-0.5,0.5-0.7,0.8-0.7s0.4,0.2,0.4,0.5C-30.7,245.6-30.7,245.8-30.8,245.9z"/>
	<path id="XMLID_52_" class="st0" d="M15.1,215.9c0,0.2-0.1,0.4-0.3,0.5s-0.3,0.3-0.4,0.4s-0.3,0.3-0.4,0.4s-0.2,0.4-0.2,0.6
		c-0.1,0.5-0.3,0.8-0.7,1.1s-0.9,0.4-1.4,0.4s-1.3,0-2.4-0.1s-2.4-0.1-3.8-0.1c-1.6,0-3.2,0.1-4.9,0.2c-1.7,0.1-3.3,0.3-4.9,0.6
		s-3.1,0.6-4.4,1s-2.6,0.9-3.6,1.5s-1.9,1.3-2.5,2.1s-0.9,1.7-0.9,2.7c0,1.4,0.2,2.7,0.7,3.8c0.5,1.1,1,2,1.6,2.8s1.1,1.4,1.6,1.8
		c0.5,0.5,0.7,0.8,0.7,0.9c0,0.2-0.1,0.3-0.4,0.5s-0.6,0.2-1.1,0.2c-1.1,0-2.1-0.2-3-0.7s-1.6-1.1-2.3-1.9c-0.6-0.8-1.1-1.7-1.5-2.7
		c-0.3-1-0.5-2.1-0.5-3.2c0-1.7,0.4-3.3,1.2-4.8c0.8-1.5,1.9-2.9,3.3-4.1c1.4-1.2,3.1-2.2,4.9-3.1c1.9-0.9,3.9-1.5,6.1-1.9
		c2.6-0.5,5-0.8,7.1-1c2.2-0.1,4.1-0.2,5.8-0.2c1.6,0,2.8,0.1,3.7,0.2c0.9,0.1,1.6,0.2,2,0.4s0.7,0.3,0.8,0.5s0.2,0.4,0.2,0.5
		s0,0.2-0.1,0.4C15.2,215.6,15.1,215.7,15.1,215.9z M-2.3,222.1c0,0.1,0,0.4,0,0.9s0,1.2-0.1,2c0,0.8-0.1,1.8-0.1,2.9
		c0,1.1-0.1,2.3-0.2,3.5c-0.1,1.3-0.1,2.6-0.2,3.9c-0.1,1.4-0.1,2.7-0.2,4.1c1.1,0,2.2,0.1,3.1,0.2c1,0.1,1.8,0.2,2.6,0.3
		c0.6,0.1,1.2,0.2,1.6,0.3s0.7,0.2,1,0.3c0.2,0.1,0.4,0.2,0.6,0.3s0.2,0.2,0.3,0.4c0.1,0.1,0.2,0.2,0.3,0.3s0.3,0.2,0.4,0.3
		s0.3,0.2,0.4,0.3s0.1,0.2,0.1,0.4s-0.1,0.3-0.2,0.4c-0.1,0.1-0.2,0.2-0.4,0.3c-0.2,0.1-0.6,0.1-1.2,0.1s-1.6,0.1-3,0.1
		c-0.7,0-1.6,0.1-2.6,0.1s-2.1,0-3.2,0.1c-0.1,1.2-0.1,2.3-0.2,3.4c-0.1,1.1-0.1,2.1-0.2,2.9c0,0.9-0.1,1.6-0.1,2.2
		c0,0.6-0.1,1.1-0.1,1.3c-0.1,0.8-0.2,1.7-0.5,2.8c-0.3,1.1-0.7,2.2-1.4,3.3s-1.4,2.3-2.4,3.4s-2.3,2.1-3.8,3
		c-0.3,0.1-0.5,0.2-0.6,0.2c-0.3,0-0.4-0.1-0.4-0.4c0-0.2,0.1-0.4,0.3-0.6c0.7-0.7,1.3-1.4,1.7-2.1c0.5-0.7,0.8-1.5,1.1-2.4
		s0.5-1.9,0.6-3.1c0.1-1.2,0.3-2.6,0.4-4.2c0-0.5,0-1.1,0.1-2c0-0.7,0.1-1.7,0.1-3c0.1-1.2,0.1-2.8,0.2-4.7c-1.4,0-2.4,0.1-3,0.2
		s-1,0.2-1.2,0.2c-0.1,0-0.2,0.1-0.2,0.2s0,0.2,0,0.3s-0.1,0.2-0.1,0.2c-0.1,0.1-0.2,0.1-0.4,0.1c-0.1,0-0.3,0-0.5-0.1
		s-0.4-0.1-0.6-0.3s-0.4-0.2-0.5-0.4c-0.1-0.1-0.2-0.3-0.2-0.5c0-0.3,0.2-0.7,0.6-1.2c0.1-0.1,0.3-0.3,0.5-0.5
		c0.3-0.2,0.6-0.5,1.1-0.8s1.1-0.5,1.9-0.8c0.7-0.3,1.7-0.5,2.7-0.7l0.8-14.2c0-0.3,0-0.6,0.1-0.9c0-0.3,0.1-0.7,0.3-1
		s0.3-0.6,0.6-0.9c0.3-0.3,0.6-0.4,1.1-0.5c0.4-0.1,0.7-0.2,0.9-0.4c0.3-0.2,0.5-0.4,0.8-0.6s0.4-0.4,0.6-0.5
		c0.2-0.2,0.4-0.2,0.5-0.2s0.1,0,0.2,0.1s0.1,0.2,0.1,0.4s0,0.3,0,0.5C-2.3,221.8-2.3,221.9-2.3,222.1z"/>
	<path id="XMLID_55_" class="st0" d="M21.6,245c0.1,0,0.2,0,0.3,0.1s0.1,0.2,0.1,0.4c0,0.1,0,0.3-0.1,0.4c-0.5,1.3-0.9,2.5-1.3,3.5
		c-0.4,1.1-0.8,2-1.2,2.8c-0.6,1.2-1.1,2.2-1.6,2.9s-1.1,1.1-1.8,1.3c-0.2,0-0.3,0.1-0.5,0.1s-0.4,0.1-0.6,0.1c-0.5,0-1-0.1-1.6-0.3
		s-1.1-0.6-1.6-1.1c-0.5-0.6-0.9-1.3-1.2-2.3S10,250.6,10,249c0-1.4,0-2.8,0.1-4.1s0.2-2.6,0.4-4c0.3-0.6,0.7-1.2,1.1-1.7
		c0.4-0.5,0.9-0.9,1.3-1.3c0.4-0.4,0.8-0.6,1.2-0.8s0.6-0.3,0.8-0.3c0.1,0,0.1,0.1,0.1,0.3s0,0.4-0.1,0.8c0,0.4-0.1,0.9-0.2,1.6
		c-0.1,0.7-0.1,1.6-0.2,2.6c-0.1,1.1-0.1,2.4-0.2,3.9c0,0.9,0.1,1.7,0.2,2.5c0.1,0.7,0.3,1.4,0.5,1.9c0.2,0.6,0.5,1,0.8,1.3
		c0.3,0.3,0.6,0.5,1,0.5c0.3,0,0.6-0.2,0.9-0.5s0.6-0.8,0.9-1.4c0.3-0.6,0.6-1.3,0.9-2.1s0.6-1.7,1-2.6
		C20.9,245.2,21.2,245,21.6,245z M17.6,225.3c0.1,0.1,0.1,0.2,0.1,0.4c0,0.4-0.2,0.8-0.7,1.2c-0.4,0.4-0.8,0.7-1.1,1
		c-0.3,0.3-0.6,0.6-0.9,0.9c-0.3,0.3-0.5,0.5-0.7,0.6c-0.2,0.2-0.4,0.2-0.5,0.2s-0.2,0-0.3-0.1c-0.1,0-0.2-0.1-0.3-0.3
		c-0.2-0.5-0.5-0.9-0.7-1.4s-0.4-1-0.6-1.4c-0.2-0.4-0.3-0.8-0.5-1.1c-0.1-0.3-0.2-0.5-0.2-0.7s0.1-0.5,0.3-0.7
		c0.1-0.1,0.3-0.3,0.5-0.7c0.3-0.3,0.6-0.7,0.9-1.1c0.3-0.4,0.6-0.7,0.9-1s0.5-0.5,0.6-0.6c0.2-0.3,0.4-0.4,0.6-0.4
		c0.2,0,0.3,0.1,0.4,0.4c0.1,0.1,0.2,0.4,0.4,0.9s0.4,0.9,0.7,1.5c0.2,0.5,0.5,1,0.7,1.5C17.4,224.9,17.6,225.2,17.6,225.3z"/>
	<path id="XMLID_58_" class="st0" d="M35.2,245.9c-0.5,1.5-0.9,3-1.4,4.3c-0.5,1.3-1,2.4-1.5,3.4c-0.5,1-1.1,1.7-1.8,2.2
		s-1.4,0.8-2.2,0.8c-1,0-1.8-0.5-2.4-1.5c-0.6-1-0.9-2.3-0.9-3.9c0-0.7,0-1.4,0.1-2s0.1-1.2,0.2-1.8s0.2-1.2,0.2-1.7
		c0.1-0.6,0.1-1.1,0.1-1.6c0-0.6-0.1-0.9-0.2-1.1s-0.3-0.3-0.5-0.3h-0.1c0,0-0.1,0-0.2,0s-0.3,0-0.5,0.1c-0.2,0-0.5,0.1-0.8,0.1
		c-0.2,0.5-0.4,0.9-0.5,1.2s-0.3,0.6-0.4,0.8s-0.2,0.4-0.3,0.6c-0.1,0.2-0.1,0.3-0.2,0.5c-0.2,0.4-0.3,0.6-0.4,0.7
		c-0.1,0.1-0.3,0.1-0.4,0.1s-0.2,0-0.3-0.1c-0.1-0.1-0.1-0.2-0.1-0.4c0-0.1,0-0.3,0.1-0.4c0.1-0.2,0.1-0.4,0.2-0.6
		c0.1-0.3,0.2-0.6,0.3-1c0.1-0.4,0.2-0.9,0.3-1.5c-0.4-0.2-0.7-0.6-1-1.3s-0.4-1.4-0.4-2.3c0-0.7,0.1-1.5,0.4-2.2
		c0.2-0.7,0.6-1.4,0.9-2.1s0.8-1.1,1.2-1.5c0.4-0.4,0.8-0.6,1.1-0.6c0.4,0,0.8,0.3,1.1,0.8c0.3,0.5,0.5,1.1,0.5,1.8
		c0,0.4,0,0.7-0.1,1.1s-0.2,0.7-0.3,1c-0.1,0.3-0.2,0.6-0.3,0.8c-0.1,0.2-0.1,0.4-0.1,0.6c0,0.2,0.1,0.3,0.2,0.3s0.3,0,0.5-0.1
		l1.4-0.7c0.5-0.2,1-0.3,1.4-0.3c0.6,0,1,0.2,1.3,0.6s0.3,1,0.3,1.7c0,0.3,0,0.9-0.1,1.8c-0.1,0.8-0.2,1.8-0.3,2.8
		c-0.1,1-0.2,2-0.2,3c-0.1,1-0.1,1.8-0.1,2.5s0.1,1.2,0.2,1.5s0.5,0.5,1,0.5c0.4,0,0.7-0.2,1-0.6s0.7-0.9,1-1.6
		c0.3-0.6,0.6-1.3,0.9-2.1c0.3-0.7,0.5-1.5,0.8-2.2c0.2-0.5,0.4-0.7,0.8-0.7C35,245.3,35.2,245.5,35.2,245.9c0,0,0,0,0,0.1
		C35.2,245.7,35.2,245.8,35.2,245.9z"/>
	<path id="XMLID_60_" class="st0" d="M48.7,245c0.1,0,0.2,0,0.3,0.1c0.1,0.1,0.1,0.2,0.1,0.4s0,0.3-0.1,0.4c-0.3,0.8-0.6,1.6-1,2.3
		c-0.3,0.7-0.7,1.4-1,1.9c-0.4,0.6-0.7,1.3-1,1.8c-0.4,0.6-0.9,1.3-1.4,1.8c-0.5,0.5-1,1.1-1.6,1.5c-0.6,0.4-1.2,0.8-1.9,1
		c-0.7,0.3-1.4,0.4-2.2,0.4c-0.6,0-1.2-0.1-1.9-0.3c-0.7-0.2-1.3-0.6-1.9-1.1s-1.1-1.3-1.4-2.2c-0.4-0.9-0.6-2.1-0.6-3.6
		c0-0.7,0.1-1.3,0.2-2c0.1-0.7,0.3-1.3,0.5-2c0.2-0.6,0.5-1.2,0.8-1.8c0.3-0.6,0.6-1,0.9-1.4c0.5-0.7,1.1-1.4,1.6-2s1.1-1.2,1.7-1.6
		c0.6-0.5,1.1-0.8,1.7-1.1c0.6-0.3,1.1-0.4,1.5-0.4c0.7,0,1.4,0.3,2,0.9c0.6,0.6,0.8,1.4,0.8,2.5c0,0.9-0.2,1.9-0.7,2.9
		c-0.5,1-1.1,2-1.8,2.9c-0.7,0.9-1.5,1.8-2.3,2.6c-0.8,0.8-1.5,1.5-2.2,2c0.4,0.9,0.8,1.5,1.4,1.9s1.1,0.6,1.7,0.6
		c0.9,0,1.7-0.3,2.4-0.9c0.7-0.6,1.3-1.3,1.9-2.1c0.6-0.8,1.1-1.7,1.5-2.6c0.4-0.9,0.8-1.7,1.1-2.4c0.1-0.2,0.2-0.4,0.4-0.5
		C48.4,245,48.5,245,48.7,245z M37.2,246.4c0,1.2,0.1,2.2,0.3,3.1c0.4-0.4,0.8-0.8,1.2-1.3s0.8-1,1.1-1.6c0.3-0.6,0.6-1.1,0.8-1.6
		c0.2-0.5,0.3-1.1,0.3-1.6c0-0.8-0.2-1.4-0.5-1.8c-0.3-0.4-0.7-0.7-1-0.7c-0.2,0-0.4,0.1-0.7,0.4c-0.2,0.2-0.5,0.6-0.7,1.1
		c-0.2,0.5-0.4,1-0.6,1.7C37.3,244.7,37.2,245.5,37.2,246.4z"/>
	<path id="XMLID_63_" class="st0" d="M69.8,245c0.1,0,0.2,0,0.3,0.1c0.1,0.1,0.1,0.2,0.1,0.4s0,0.3-0.1,0.4
		c-0.6,1.8-1.2,3.3-1.7,4.6s-1,2.4-1.6,3.3s-1.1,1.6-1.6,2c-0.6,0.5-1.2,0.7-1.8,0.7c-0.8,0-1.5-0.2-2-0.6c-0.5-0.4-0.9-0.9-1.2-1.5
		c-0.3-0.6-0.5-1.3-0.6-2.1c-0.1-0.8-0.1-1.5-0.1-2.3c0-0.5,0-1.1,0-1.6s0-1,0.1-1.5c0-0.5,0.1-0.9,0.1-1.3c0-0.4,0-0.7,0-0.9
		c0-0.4-0.1-0.6-0.2-0.8c-0.1-0.2-0.3-0.3-0.4-0.3c-0.2,0-0.3,0.1-0.4,0.3c-0.1,0.2-0.2,0.4-0.3,0.6c-0.1,0.2-0.2,0.7-0.4,1.3
		c-0.2,0.6-0.4,1.3-0.7,2.1c-0.3,0.8-0.5,1.6-0.8,2.4c-0.3,0.8-0.5,1.6-0.8,2.3c-0.3,0.9-0.6,1.6-0.9,2.1c-0.3,0.5-0.6,1-0.8,1.3
		c-0.2,0.3-0.5,0.5-0.8,0.6c-0.2,0.1-0.5,0.2-0.7,0.2c-0.2,0-0.4,0-0.6-0.1s-0.4-0.2-0.6-0.4c-0.2-0.2-0.3-0.4-0.4-0.7
		s-0.2-0.7-0.2-1.2c0-1-0.1-2.1-0.1-3.3s0-2.3,0-3.4c0-0.5,0-1,0-1.5s0-0.9,0-1.4c0-0.6,0-1-0.1-1.2s-0.1-0.4-0.2-0.4
		c-0.2,0-0.4,0.2-0.5,0.6c-0.1,0.4-0.4,1.1-0.8,2c-0.1,0.3-0.2,0.5-0.4,0.6c-0.1,0.1-0.3,0.2-0.4,0.2c-0.1,0-0.2,0-0.3-0.1
		c-0.1-0.1-0.1-0.2-0.1-0.5c0-0.1,0-0.3,0.1-0.6c0.1-0.3,0.2-0.6,0.4-1c0.1-0.4,0.3-0.7,0.4-1.1c0.1-0.4,0.3-0.7,0.4-1
		c0.2-0.5,0.4-0.9,0.6-1.4c0.2-0.5,0.5-0.9,0.8-1.3c0.3-0.4,0.6-0.7,1-1c0.4-0.3,0.8-0.4,1.2-0.4c0.6,0,1.1,0.3,1.5,0.9
		c0.4,0.6,0.7,1.6,0.7,2.9c0,1,0,2,0,2.9s0,1.7,0,2.4s0,1.2,0,1.6c0,0.4,0,0.6,0,0.6s0.1-0.2,0.3-0.5c0.1-0.4,0.3-0.8,0.5-1.4
		c0.2-0.6,0.5-1.2,0.7-2c0.2-0.8,0.6-1.5,0.9-2.2c0.3-0.8,0.6-1.5,1-2.2c0.3-0.7,0.7-1.3,1-1.8c0.4-0.6,0.7-1,1.1-1.3
		c0.4-0.3,0.9-0.4,1.4-0.4c0.7,0,1.2,0.4,1.5,1.3c0.3,0.8,0.5,2,0.5,3.4c0,0.4,0,0.8,0,1.3s0,1.1-0.1,1.6c0,0.6-0.1,1.1-0.1,1.7
		c0,0.6,0,1.1,0,1.6c0,0.8,0,1.5,0.1,2c0.1,0.5,0.2,0.9,0.3,1.2c0.1,0.3,0.2,0.5,0.4,0.6c0.1,0.1,0.3,0.1,0.4,0.1
		c0.4,0,0.8-0.2,1.1-0.5c0.3-0.4,0.6-0.8,0.9-1.4c0.3-0.6,0.6-1.3,0.9-2.1s0.6-1.6,1-2.5C69.2,245.2,69.5,245,69.8,245z"/>
	<path id="XMLID_65_" class="st0" d="M87.8,245.8c-0.5,1.5-1,2.8-1.5,3.9c-0.5,1-0.9,1.9-1.4,2.7s-0.9,1.4-1.4,2s-1,1.2-1.5,1.7
		c-0.4,0.5-0.8,0.9-1.3,1.3c-0.4,0.4-0.9,0.8-1.3,1.2c0.2,0.7,0.4,1.5,0.5,2.3c0.1,0.8,0.2,1.5,0.2,2.2c0,1.9-0.3,3.5-0.8,4.9
		s-1,2.7-1.7,3.7c-0.6,1-1.3,1.8-2,2.5c-0.7,0.6-1.2,1.1-1.7,1.3c-0.5,0.3-0.9,0.5-1.3,0.6s-0.8,0.2-1.1,0.2c-1,0-1.7-0.4-2.2-1.3
		s-0.7-2.1-0.7-3.5c0-1.3,0.2-2.5,0.6-3.7c0.4-1.2,0.9-2.2,1.6-3.2s1.4-1.9,2.2-2.8c0.8-0.9,1.7-1.7,2.6-2.4c-0.2-1.5-0.7-2.8-1.4-4
		c-0.2-0.4-0.4-0.6-0.4-0.7c0-0.3,0.1-0.5,0.4-0.6s0.6-0.3,1-0.5s0.8-0.4,1.2-0.7c0.4-0.3,0.9-0.7,1.2-1.3c0.3-0.4,0.5-0.8,0.7-1.3
		s0.3-0.9,0.4-1.3c0.1-0.4,0.1-0.9,0.2-1.3c0-0.4,0-0.8,0-1.2c0-1.1-0.1-2.1-0.3-3c-0.2-0.8-0.4-1.5-0.7-2.1c-0.3-0.5-0.6-0.9-1-1.2
		s-0.8-0.4-1.2-0.4c-0.4,0-0.8,0.1-1.1,0.4c-0.3,0.3-0.6,0.6-0.8,1.1c-0.2,0.5-0.4,1-0.5,1.6s-0.1,1.2-0.1,1.9c0,0.5,0,1,0.1,1.4
		c0.1,0.5,0.1,0.9,0.3,1.3c0.1,0.4,0.3,0.7,0.4,0.9c0.2,0.2,0.4,0.4,0.6,0.4c0.6,0.1,0.9,0.3,0.9,0.6c0,0.1-0.1,0.3-0.2,0.5
		s-0.3,0.3-0.5,0.5c-0.2,0.1-0.5,0.3-0.8,0.4c-0.3,0.1-0.7,0.1-1,0.1s-0.8-0.1-1.2-0.2s-0.9-0.4-1.2-0.8c-0.4-0.4-0.7-0.8-1-1.4
		c-0.3-0.6-0.4-1.3-0.4-2.2c0-1.1,0.2-2.2,0.6-3.3s1-2,1.7-2.8s1.6-1.5,2.5-1.9c1-0.5,2-0.7,3.1-0.7c0.6,0,1.2,0.1,1.9,0.3
		c0.7,0.2,1.3,0.5,1.9,1.1s1.1,1.3,1.5,2.3s0.6,2.3,0.6,3.9c0,1.1-0.2,2.4-0.7,3.7s-1.3,2.6-2.4,3.8c-0.2,0.2-0.4,0.4-0.7,0.6
		c-0.3,0.2-0.6,0.4-0.9,0.7c-0.3,0.2-0.6,0.4-0.9,0.6c-0.3,0.2-0.5,0.3-0.8,0.4c0.4,0.3,0.8,0.7,1.1,1.1c0.3,0.4,0.6,0.8,0.8,1.3
		c0.5-0.3,0.9-0.7,1.3-1s0.8-0.6,1.1-0.9c0.7-0.7,1.4-1.4,2-2.2c0.6-0.7,1.1-1.5,1.5-2.3s0.8-1.6,1.1-2.4c0.3-0.8,0.6-1.6,0.9-2.5
		c0.2-0.5,0.5-0.8,0.9-0.8c0.1,0,0.2,0,0.3,0.1c0.1,0.1,0.1,0.2,0.1,0.3C87.8,245.5,87.8,245.6,87.8,245.8z M72.9,273.9
		c0.3,0,0.6-0.4,0.9-1c0.4-0.7,0.7-1.6,1-2.8c0.3-1.1,0.6-2.4,0.8-3.9c0.2-1.4,0.3-2.9,0.3-4.4c-0.5,0.6-1,1.2-1.5,1.9
		c-0.5,0.7-0.8,1.4-1.2,2.2c-0.3,0.8-0.6,1.7-0.8,2.7c-0.2,1-0.3,2.1-0.3,3.3c0,0.7,0.1,1.2,0.2,1.5
		C72.5,273.8,72.7,273.9,72.9,273.9z"/>
	<path id="XMLID_68_" class="st0" d="M101.3,245c0.1,0,0.2,0,0.3,0.1c0.1,0.1,0.1,0.2,0.1,0.4s0,0.3-0.1,0.4c-0.3,0.8-0.6,1.6-1,2.3
		c-0.3,0.7-0.7,1.4-1,1.9c-0.4,0.6-0.7,1.3-1,1.8c-0.4,0.6-0.9,1.3-1.4,1.8s-1,1.1-1.6,1.5s-1.2,0.8-1.9,1c-0.7,0.3-1.4,0.4-2.2,0.4
		c-0.6,0-1.2-0.1-1.9-0.3c-0.7-0.2-1.3-0.6-1.9-1.1s-1.1-1.3-1.4-2.2c-0.4-0.9-0.6-2.1-0.6-3.6c0-0.7,0.1-1.3,0.2-2s0.3-1.3,0.5-2
		c0.2-0.6,0.5-1.2,0.8-1.8s0.6-1,0.9-1.4c0.5-0.7,1.1-1.4,1.6-2s1.1-1.2,1.7-1.6c0.6-0.5,1.1-0.8,1.7-1.1s1.1-0.4,1.5-0.4
		c0.7,0,1.4,0.3,2,0.9c0.6,0.6,0.8,1.4,0.8,2.5c0,0.9-0.2,1.9-0.7,2.9s-1.1,2-1.8,2.9s-1.5,1.8-2.3,2.6s-1.5,1.5-2.2,2
		c0.4,0.9,0.8,1.5,1.4,1.9s1.1,0.6,1.7,0.6c0.9,0,1.7-0.3,2.4-0.9c0.7-0.6,1.3-1.3,1.9-2.1s1.1-1.7,1.5-2.6c0.4-0.9,0.8-1.7,1.1-2.4
		c0.1-0.2,0.2-0.4,0.4-0.5C101,245,101.1,245,101.3,245z M89.8,246.4c0,1.2,0.1,2.2,0.3,3.1c0.4-0.4,0.8-0.8,1.2-1.3
		c0.4-0.5,0.8-1,1.1-1.6s0.6-1.1,0.8-1.6s0.3-1.1,0.3-1.6c0-0.8-0.2-1.4-0.5-1.8c-0.3-0.4-0.7-0.7-1-0.7c-0.2,0-0.4,0.1-0.7,0.4
		c-0.2,0.2-0.5,0.6-0.7,1.1s-0.4,1-0.6,1.7C89.9,244.7,89.8,245.5,89.8,246.4z"/>
</g>
</svg>
